<?xml version="1.0"?>
<svg xmlns:rdf="http://www.w3.org/1999/02/22-rdf-syntax-ns#" xmlns="http://www.w3.org/2000/svg" xmlns:cc="http://creativecommons.org/ns#" xmlns:xlink="http://www.w3.org/1999/xlink" xmlns:dc="http://purl.org/dc/elements/1.1/" xmlns:svg="http://www.w3.org/2000/svg" id="svg3112" viewBox="0 0 741.43 662.86" version="1.0">
  <defs id="defs3114">
    <linearGradient id="linearGradient3901" y2="911.65" gradientUnits="userSpaceOnUse" x2="411.43" y1="438.79" x1="407.14">
      <stop id="stop3897" stop-color="#191962" offset="0"/>
      <stop id="stop3899" stop-color="#000080" stop-opacity="0" offset="1"/>
    </linearGradient>
    <filter id="filter7359" y="-.15153" width="1.1667" height="1.3031" x="-.083354">
      <feGaussianBlur id="feGaussianBlur7361" stdDeviation="24.968748"/>
    </filter>
  </defs>
  <g id="layer1" transform="translate(-2.8571 -273.79)">
    <rect id="rect3893" height="661.43" width="741.43" y="275.22" x="2.8571" fill="url(#linearGradient3901)"/>
    <path id="path3903" d="m-225.71 393.79a4.2857 4.2857 0 1 1 -8.58 0 4.2857 4.2857 0 1 1 8.58 0z" fill="#fff" transform="translate(340 -12.857)"/>
    <path id="path3905" d="m-225.71 393.79a4.2857 4.2857 0 1 1 -8.58 0 4.2857 4.2857 0 1 1 8.58 0z" fill="#fff" transform="translate(474.29 91.429)"/>
    <path id="path3907" d="m-225.71 393.79a4.2857 4.2857 0 1 1 -8.58 0 4.2857 4.2857 0 1 1 8.58 0z" fill="#fff" transform="translate(432.86 21.429)"/>
    <path id="path3909" d="m-225.71 393.79a4.2857 4.2857 0 1 1 -8.58 0 4.2857 4.2857 0 1 1 8.58 0z" fill="#fff" transform="translate(591.43 87.143)"/>
    <path id="path3911" d="m-225.71 393.79a4.2857 4.2857 0 1 1 -8.58 0 4.2857 4.2857 0 1 1 8.58 0z" fill="#fff" transform="translate(611.43 155.71)"/>
    <path id="path3913" d="m-225.71 393.79a4.2857 4.2857 0 1 1 -8.58 0 4.2857 4.2857 0 1 1 8.58 0z" fill="#fff" transform="translate(651.43 197.14)"/>
    <path id="path3915" d="m-225.71 393.79a4.2857 4.2857 0 1 1 -8.58 0 4.2857 4.2857 0 1 1 8.58 0z" fill="#fff" transform="translate(647.14 317.14)"/>
    <path id="path3917" d="m-225.71 393.79a4.2857 4.2857 0 1 1 -8.58 0 4.2857 4.2857 0 1 1 8.58 0z" fill="#fff" transform="translate(631.43 312.86)"/>
    <path id="path3919" d="m-225.71 393.79a4.2857 4.2857 0 1 1 -8.58 0 4.2857 4.2857 0 1 1 8.58 0z" fill="#fff" transform="translate(437.14 148.57)"/>
    <path id="path3921" d="m-225.71 393.79a4.2857 4.2857 0 1 1 -8.58 0 4.2857 4.2857 0 1 1 8.58 0z" fill="#fff" transform="translate(297.14 78.571)"/>
    <path id="path3923" d="m-225.71 393.79a4.2857 4.2857 0 1 1 -8.58 0 4.2857 4.2857 0 1 1 8.58 0z" fill="#fff" transform="translate(268.57 122.86)"/>
    <path id="path3937" d="m-225.71 393.79a4.2857 4.2857 0 1 1 -8.58 0 4.2857 4.2857 0 1 1 8.58 0z" fill="#fff" transform="translate(244.29 -21.429)"/>
    <path id="path3939" d="m-225.71 393.79a4.2857 4.2857 0 1 1 -8.58 0 4.2857 4.2857 0 1 1 8.58 0z" fill="#fff" transform="translate(295.71 161.43)"/>
    <path id="path3949" d="m-225.71 393.79a4.2857 4.2857 0 1 1 -8.58 0 4.2857 4.2857 0 1 1 8.58 0z" fill="#fff" transform="translate(330 294.29)"/>
    <path id="path3951" d="m-225.71 393.79a4.2857 4.2857 0 1 1 -8.58 0 4.2857 4.2857 0 1 1 8.58 0z" fill="#fff" transform="translate(277.14 335.71)"/>
    <path id="path3979" d="m-225.71 393.79a4.2857 4.2857 0 1 1 -8.58 0 4.2857 4.2857 0 1 1 8.58 0z" fill="#fff" transform="translate(262.86 18.571)"/>
    <path id="path3981" d="m-225.71 393.79a4.2857 4.2857 0 1 1 -8.58 0 4.2857 4.2857 0 1 1 8.58 0z" fill="#fff" transform="translate(277.14 17.143)"/>
    <path id="path3983" d="m-225.71 393.79a4.2857 4.2857 0 1 1 -8.58 0 4.2857 4.2857 0 1 1 8.58 0z" fill="#fff" transform="translate(242.86 -7.1428)"/>
    <path id="path4041" d="m-225.71 393.79a4.2857 4.2857 0 1 1 -8.58 0 4.2857 4.2857 0 1 1 8.58 0z" fill="#fff" transform="translate(574.29 -104.29)"/>
    <path id="path4043" d="m-225.71 393.79a4.2857 4.2857 0 1 1 -8.58 0 4.2857 4.2857 0 1 1 8.58 0z" fill="#fff" transform="translate(460 -107.14)"/>
    <path id="path4099" d="m-225.71 393.79a4.2857 4.2857 0 1 1 -8.58 0 4.2857 4.2857 0 1 1 8.58 0z" fill="#fff" transform="translate(565.71 -75.714)"/>
    <path id="path4101" d="m-225.71 393.79a4.2857 4.2857 0 1 1 -8.58 0 4.2857 4.2857 0 1 1 8.58 0z" fill="#fff" transform="translate(638.57 14.286)"/>
    <path id="path4103" d="m-225.71 393.79a4.2857 4.2857 0 1 1 -8.58 0 4.2857 4.2857 0 1 1 8.58 0z" fill="#fff" transform="translate(717.14 72.857)"/>
    <path id="path4105" d="m-225.71 393.79a4.2857 4.2857 0 1 1 -8.58 0 4.2857 4.2857 0 1 1 8.58 0z" fill="#fff" transform="translate(765.71 70)"/>
    <path id="path4107" d="m-225.71 393.79a4.2857 4.2857 0 1 1 -8.58 0 4.2857 4.2857 0 1 1 8.58 0z" fill="#fff" transform="translate(801.43 34.286)"/>
    <path id="path4109" d="m-225.71 393.79a4.2857 4.2857 0 1 1 -8.58 0 4.2857 4.2857 0 1 1 8.58 0z" fill="#fff" transform="translate(790 -17.143)"/>
    <path id="path4111" d="m-225.71 393.79a4.2857 4.2857 0 1 1 -8.58 0 4.2857 4.2857 0 1 1 8.58 0z" fill="#fff" transform="translate(722.86 -35.714)"/>
    <path id="path4113" d="m-225.71 393.79a4.2857 4.2857 0 1 1 -8.58 0 4.2857 4.2857 0 1 1 8.58 0z" fill="#fff" transform="translate(604.29 -24.286)"/>
    <path id="path4115" d="m-225.71 393.79a4.2857 4.2857 0 1 1 -8.58 0 4.2857 4.2857 0 1 1 8.58 0z" fill="#fff" transform="translate(567.14 8.5714)"/>
    <path id="path4117" d="m-225.71 393.79a4.2857 4.2857 0 1 1 -8.58 0 4.2857 4.2857 0 1 1 8.58 0z" fill="#fff" transform="translate(601.43 27.143)"/>
    <path id="path4119" d="m-225.71 393.79a4.2857 4.2857 0 1 1 -8.58 0 4.2857 4.2857 0 1 1 8.58 0z" fill="#fff" transform="translate(732.86 51.429)"/>
    <path id="path4121" d="m-225.71 393.79a4.2857 4.2857 0 1 1 -8.58 0 4.2857 4.2857 0 1 1 8.58 0z" fill="#fff" transform="translate(822.86 14.286)"/>
    <path id="path4123" d="m-225.71 393.79a4.2857 4.2857 0 1 1 -8.58 0 4.2857 4.2857 0 1 1 8.58 0z" fill="#fff" transform="translate(858.57 8.5714)"/>
    <path id="path4125" d="m-225.71 393.79a4.2857 4.2857 0 1 1 -8.58 0 4.2857 4.2857 0 1 1 8.58 0z" fill="#fff" transform="translate(914.29 84.286)"/>
    <path id="path4127" d="m-225.71 393.79a4.2857 4.2857 0 1 1 -8.58 0 4.2857 4.2857 0 1 1 8.58 0z" fill="#fff" transform="translate(885.71 142.86)"/>
    <path id="path4129" d="m-225.71 393.79a4.2857 4.2857 0 1 1 -8.58 0 4.2857 4.2857 0 1 1 8.58 0z" fill="#fff" transform="translate(747.14 132.86)"/>
    <path id="path4131" d="m-225.71 393.79a4.2857 4.2857 0 1 1 -8.58 0 4.2857 4.2857 0 1 1 8.58 0z" fill="#fff" transform="translate(641.43 62.857)"/>
    <path id="path4133" d="m-225.71 393.79a4.2857 4.2857 0 1 1 -8.58 0 4.2857 4.2857 0 1 1 8.58 0z" fill="#fff" transform="translate(550 4.2857)"/>
    <path id="path4135" d="m-225.71 393.79a4.2857 4.2857 0 1 1 -8.58 0 4.2857 4.2857 0 1 1 8.58 0z" fill="#fff" transform="translate(481.43 7.1429)"/>
    <path id="path4137" d="m-225.71 393.79a4.2857 4.2857 0 1 1 -8.58 0 4.2857 4.2857 0 1 1 8.58 0z" fill="#fff" transform="translate(432.86 38.571)"/>
    <path id="path4139" d="m-225.71 393.79a4.2857 4.2857 0 1 1 -8.58 0 4.2857 4.2857 0 1 1 8.58 0z" fill="#fff" transform="translate(430 45.714)"/>
    <path id="path4141" d="m-225.71 393.79a4.2857 4.2857 0 1 1 -8.58 0 4.2857 4.2857 0 1 1 8.58 0z" fill="#fff" transform="translate(552.86 -20)"/>
    <path id="path4143" d="m-225.71 393.79a4.2857 4.2857 0 1 1 -8.58 0 4.2857 4.2857 0 1 1 8.58 0z" fill="#fff" transform="translate(722.86 -68.571)"/>
    <path id="path4145" d="m-225.71 393.79a4.2857 4.2857 0 1 1 -8.58 0 4.2857 4.2857 0 1 1 8.58 0z" fill="#fff" transform="translate(837.14 -40)"/>
    <path id="path4147" d="m-225.71 393.79a4.2857 4.2857 0 1 1 -8.58 0 4.2857 4.2857 0 1 1 8.58 0z" fill="#fff" transform="translate(895.71 -14.286)"/>
    <path id="path4149" d="m-225.71 393.79a4.2857 4.2857 0 1 1 -8.58 0 4.2857 4.2857 0 1 1 8.58 0z" fill="#fff" transform="translate(912.86 -22.857)"/>
    <path id="path4151" d="m-225.71 393.79a4.2857 4.2857 0 1 1 -8.58 0 4.2857 4.2857 0 1 1 8.58 0z" fill="#fff" transform="translate(895.71 -44.286)"/>
    <path id="path4153" d="m-225.71 393.79a4.2857 4.2857 0 1 1 -8.58 0 4.2857 4.2857 0 1 1 8.58 0z" fill="#fff" transform="translate(695.71 -115.71)"/>
    <path id="path4155" d="m-225.71 393.79a4.2857 4.2857 0 1 1 -8.58 0 4.2857 4.2857 0 1 1 8.58 0z" fill="#fff" transform="translate(561.43 -67.143)"/>
    <path id="path4159" d="m-225.71 393.79a4.2857 4.2857 0 1 1 -8.58 0 4.2857 4.2857 0 1 1 8.58 0z" fill="#fff" transform="translate(480 38.571)"/>
    <path id="path4161" d="m-225.71 393.79a4.2857 4.2857 0 1 1 -8.58 0 4.2857 4.2857 0 1 1 8.58 0z" fill="#fff" transform="translate(421.43 44.286)"/>
    <path id="path4163" d="m-225.71 393.79a4.2857 4.2857 0 1 1 -8.58 0 4.2857 4.2857 0 1 1 8.58 0z" fill="#fff" transform="translate(507.14 120)"/>
    <path id="path4165" d="m-225.71 393.79a4.2857 4.2857 0 1 1 -8.58 0 4.2857 4.2857 0 1 1 8.58 0z" fill="#fff" transform="translate(654.29 190)"/>
    <path id="path4167" d="m-225.71 393.79a4.2857 4.2857 0 1 1 -8.58 0 4.2857 4.2857 0 1 1 8.58 0z" fill="#fff" transform="translate(754.29 220)"/>
    <path id="path4169" d="m-225.71 393.79a4.2857 4.2857 0 1 1 -8.58 0 4.2857 4.2857 0 1 1 8.58 0z" fill="#fff" transform="translate(811.43 257.14)"/>
    <path id="path4171" d="m-225.71 393.79a4.2857 4.2857 0 1 1 -8.58 0 4.2857 4.2857 0 1 1 8.58 0z" fill="#fff" transform="translate(772.86 274.29)"/>
    <path id="path4173" d="m-225.71 393.79a4.2857 4.2857 0 1 1 -8.58 0 4.2857 4.2857 0 1 1 8.58 0z" fill="#fff" transform="translate(457.14 255.71)"/>
    <path id="path4175" d="m-225.71 393.79a4.2857 4.2857 0 1 1 -8.58 0 4.2857 4.2857 0 1 1 8.58 0z" fill="#fff" transform="translate(381.43 240)"/>
    <path id="path4177" d="m-225.71 393.79a4.2857 4.2857 0 1 1 -8.58 0 4.2857 4.2857 0 1 1 8.58 0z" fill="#fff" transform="translate(382.86 262.86)"/>
    <path id="path4179" d="m-225.71 393.79a4.2857 4.2857 0 1 1 -8.58 0 4.2857 4.2857 0 1 1 8.58 0z" fill="#fff" transform="translate(508.57 305.71)"/>
    <path id="path4181" d="m-225.71 393.79a4.2857 4.2857 0 1 1 -8.58 0 4.2857 4.2857 0 1 1 8.58 0z" fill="#fff" transform="translate(714.29 208.57)"/>
    <path id="path4183" d="m-225.71 393.79a4.2857 4.2857 0 1 1 -8.58 0 4.2857 4.2857 0 1 1 8.58 0z" fill="#fff" transform="translate(731.43 180)"/>
    <path id="path4185" d="m-225.71 393.79a4.2857 4.2857 0 1 1 -8.58 0 4.2857 4.2857 0 1 1 8.58 0z" fill="#fff" transform="translate(851.43 197.14)"/>
    <path id="path4187" d="m-225.71 393.79a4.2857 4.2857 0 1 1 -8.58 0 4.2857 4.2857 0 1 1 8.58 0z" fill="#fff" transform="translate(921.43 244.29)"/>
    <path id="path4189" d="m-225.71 393.79a4.2857 4.2857 0 1 1 -8.58 0 4.2857 4.2857 0 1 1 8.58 0z" fill="#fff" transform="translate(797.14 308.57)"/>
    <path id="path4191" d="m-225.71 393.79a4.2857 4.2857 0 1 1 -8.58 0 4.2857 4.2857 0 1 1 8.58 0z" fill="#fff" transform="translate(632.86 238.57)"/>
    <path id="path4193" d="m-225.71 393.79a4.2857 4.2857 0 1 1 -8.58 0 4.2857 4.2857 0 1 1 8.58 0z" fill="#fff" transform="translate(628.57 220)"/>
    <path id="path4195" d="m-225.71 393.79a4.2857 4.2857 0 1 1 -8.58 0 4.2857 4.2857 0 1 1 8.58 0z" fill="#fff" transform="translate(617.14 208.57)"/>
    <path id="path4197" d="m-225.71 393.79a4.2857 4.2857 0 1 1 -8.58 0 4.2857 4.2857 0 1 1 8.58 0z" fill="#fff" transform="translate(458.57 95.714)"/>
    <path id="path4199" d="m-225.71 393.79a4.2857 4.2857 0 1 1 -8.58 0 4.2857 4.2857 0 1 1 8.58 0z" fill="#fff" transform="translate(364.29 78.571)"/>
    <path id="path4201" d="m-225.71 393.79a4.2857 4.2857 0 1 1 -8.58 0 4.2857 4.2857 0 1 1 8.58 0z" fill="#fff" transform="translate(365.71 82.857)"/>
    <path id="path4203" d="m-225.71 393.79a4.2857 4.2857 0 1 1 -8.58 0 4.2857 4.2857 0 1 1 8.58 0z" fill="#fff" transform="translate(392.86 152.86)"/>
    <path id="path4205" d="m-225.71 393.79a4.2857 4.2857 0 1 1 -8.58 0 4.2857 4.2857 0 1 1 8.58 0z" fill="#fff" transform="translate(465.71 214.29)"/>
    <path id="path4207" d="m-225.71 393.79a4.2857 4.2857 0 1 1 -8.58 0 4.2857 4.2857 0 1 1 8.58 0z" fill="#fff" transform="translate(361.43 205.71)"/>
    <path id="path4209" d="m-225.71 393.79a4.2857 4.2857 0 1 1 -8.58 0 4.2857 4.2857 0 1 1 8.58 0z" fill="#fff" transform="translate(331.43 252.86)"/>
    <path id="path4211" d="m-225.71 393.79a4.2857 4.2857 0 1 1 -8.58 0 4.2857 4.2857 0 1 1 8.58 0z" fill="#fff" transform="translate(504.29 330)"/>
    <path id="path4213" d="m-225.71 393.79a4.2857 4.2857 0 1 1 -8.58 0 4.2857 4.2857 0 1 1 8.58 0z" fill="#fff" transform="translate(650 300)"/>
    <path id="path4215" d="m-225.71 393.79a4.2857 4.2857 0 1 1 -8.58 0 4.2857 4.2857 0 1 1 8.58 0z" fill="#fff" transform="translate(758.57 255.71)"/>
    <path id="path4217" d="m-225.71 393.79a4.2857 4.2857 0 1 1 -8.58 0 4.2857 4.2857 0 1 1 8.58 0z" fill="#fff" transform="translate(847.14 282.86)"/>
    <path id="path4219" d="m-225.71 393.79a4.2857 4.2857 0 1 1 -8.58 0 4.2857 4.2857 0 1 1 8.58 0z" fill="#fff" transform="translate(844.29 348.57)"/>
    <path id="path4221" d="m-225.71 393.79a4.2857 4.2857 0 1 1 -8.58 0 4.2857 4.2857 0 1 1 8.58 0z" fill="#fff" transform="translate(754.29 384.29)"/>
    <path id="path4223" d="m-225.71 393.79a4.2857 4.2857 0 1 1 -8.58 0 4.2857 4.2857 0 1 1 8.58 0z" fill="#fff" transform="translate(601.43 347.14)"/>
    <path id="path4225" d="m-225.71 393.79a4.2857 4.2857 0 1 1 -8.58 0 4.2857 4.2857 0 1 1 8.58 0z" fill="#fff" transform="translate(524.29 345.71)"/>
    <path id="path4227" d="m-225.71 393.79a4.2857 4.2857 0 1 1 -8.58 0 4.2857 4.2857 0 1 1 8.58 0z" fill="#fff" transform="translate(541.43 395.71)"/>
    <path id="path4229" d="m-225.71 393.79a4.2857 4.2857 0 1 1 -8.58 0 4.2857 4.2857 0 1 1 8.58 0z" fill="#fff" transform="translate(674.29 441.43)"/>
    <path id="path4231" d="m-225.71 393.79a4.2857 4.2857 0 1 1 -8.58 0 4.2857 4.2857 0 1 1 8.58 0z" fill="#fff" transform="translate(858.57 401.43)"/>
    <path id="path4233" d="m-225.71 393.79a4.2857 4.2857 0 1 1 -8.58 0 4.2857 4.2857 0 1 1 8.58 0z" fill="#fff" transform="translate(877.14 400)"/>
    <path id="path4235" d="m-225.71 393.79a4.2857 4.2857 0 1 1 -8.58 0 4.2857 4.2857 0 1 1 8.58 0z" fill="#fff" transform="translate(857.14 435.71)"/>
    <path id="path4237" d="m-225.71 393.79a4.2857 4.2857 0 1 1 -8.58 0 4.2857 4.2857 0 1 1 8.58 0z" fill="#fff" transform="translate(558.57 440)"/>
    <path id="path4239" d="m-225.71 393.79a4.2857 4.2857 0 1 1 -8.58 0 4.2857 4.2857 0 1 1 8.58 0z" fill="#fff" transform="translate(310 357.14)"/>
    <path id="path4241" d="m-225.71 393.79a4.2857 4.2857 0 1 1 -8.58 0 4.2857 4.2857 0 1 1 8.58 0z" fill="#fff" transform="translate(290 352.86)"/>
    <path id="path4243" d="m-225.71 393.79a4.2857 4.2857 0 1 1 -8.58 0 4.2857 4.2857 0 1 1 8.58 0z" fill="#fff" transform="translate(285.71 395.71)"/>
    <path id="path4245" d="m-225.71 393.79a4.2857 4.2857 0 1 1 -8.58 0 4.2857 4.2857 0 1 1 8.58 0z" fill="#fff" transform="translate(431.43 414.29)"/>
    <path id="path4247" d="m-225.71 393.79a4.2857 4.2857 0 1 1 -8.58 0 4.2857 4.2857 0 1 1 8.58 0z" fill="#fff" transform="translate(714.29 322.86)"/>
    <path id="path4249" d="m-225.71 393.79a4.2857 4.2857 0 1 1 -8.58 0 4.2857 4.2857 0 1 1 8.58 0z" fill="#fff" transform="translate(791.43 291.43)"/>
    <path id="path4251" d="m-225.71 393.79a4.2857 4.2857 0 1 1 -8.58 0 4.2857 4.2857 0 1 1 8.58 0z" fill="#fff" transform="translate(825.71 214.29)"/>
    <path id="path4253" d="m-225.71 393.79a4.2857 4.2857 0 1 1 -8.58 0 4.2857 4.2857 0 1 1 8.58 0z" fill="#fff" transform="translate(702.86 118.57)"/>
    <path id="path4255" d="m-225.71 393.79a4.2857 4.2857 0 1 1 -8.58 0 4.2857 4.2857 0 1 1 8.58 0z" fill="#fff" transform="translate(572.86 94.286)"/>
    <path id="path4257" d="m-225.71 393.79a4.2857 4.2857 0 1 1 -8.58 0 4.2857 4.2857 0 1 1 8.58 0z" fill="#fff" transform="translate(581.43 58.571)"/>
    <path id="path4259" d="m-225.71 393.79a4.2857 4.2857 0 1 1 -8.58 0 4.2857 4.2857 0 1 1 8.58 0z" fill="#fff" transform="translate(461.43 -40)"/>
    <path id="path4261" d="m-225.71 393.79a4.2857 4.2857 0 1 1 -8.58 0 4.2857 4.2857 0 1 1 8.58 0z" fill="#fff" transform="translate(382.86 -82.857)"/>
    <path id="path4263" d="m-225.71 393.79a4.2857 4.2857 0 1 1 -8.58 0 4.2857 4.2857 0 1 1 8.58 0z" fill="#fff" transform="translate(338.57 -91.429)"/>
    <path id="path4265" d="m-225.71 393.79a4.2857 4.2857 0 1 1 -8.58 0 4.2857 4.2857 0 1 1 8.58 0z" fill="#fff" transform="translate(354.29 -94.286)"/>
    <path id="path4267" d="m-225.71 393.79a4.2857 4.2857 0 1 1 -8.58 0 4.2857 4.2857 0 1 1 8.58 0z" fill="#fff" transform="translate(405.71 -94.286)"/>
    <path id="path4269" d="m-225.71 393.79a4.2857 4.2857 0 1 1 -8.58 0 4.2857 4.2857 0 1 1 8.58 0z" fill="#fff" transform="translate(312.86 -54.286)"/>
    <path id="path4271" d="m-225.71 393.79a4.2857 4.2857 0 1 1 -8.58 0 4.2857 4.2857 0 1 1 8.58 0z" fill="#fff" transform="translate(310 -55.714)"/>
    <path id="path4273" d="m-225.71 393.79a4.2857 4.2857 0 1 1 -8.58 0 4.2857 4.2857 0 1 1 8.58 0z" fill="#fff" transform="translate(347.14 -98.571)"/>
    <path id="path4275" d="m-225.71 393.79a4.2857 4.2857 0 1 1 -8.58 0 4.2857 4.2857 0 1 1 8.58 0z" fill="#fff" transform="translate(571.43 -37.143)"/>
    <path id="path4277" d="m-225.71 393.79a4.2857 4.2857 0 1 1 -8.58 0 4.2857 4.2857 0 1 1 8.58 0z" fill="#fff" transform="translate(894.29 12.857)"/>
    <path id="path4279" d="m-225.71 393.79a4.2857 4.2857 0 1 1 -8.58 0 4.2857 4.2857 0 1 1 8.58 0z" fill="#fff" transform="translate(917.14 15.714)"/>
    <path id="path4281" d="m-225.71 393.79a4.2857 4.2857 0 1 1 -8.58 0 4.2857 4.2857 0 1 1 8.58 0z" fill="#fff" transform="translate(928.57 45.714)"/>
    <path id="path4283" d="m-225.71 393.79a4.2857 4.2857 0 1 1 -8.58 0 4.2857 4.2857 0 1 1 8.58 0z" fill="#fff" transform="translate(828.57 94.286)"/>
    <path id="path4285" d="m-225.71 393.79a4.2857 4.2857 0 1 1 -8.58 0 4.2857 4.2857 0 1 1 8.58 0z" fill="#fff" transform="translate(710 58.571)"/>
    <path id="path4287" d="m-225.71 393.79a4.2857 4.2857 0 1 1 -8.58 0 4.2857 4.2857 0 1 1 8.58 0z" fill="#fff" transform="translate(651.43 68.571)"/>
    <path id="path4289" d="m-225.71 393.79a4.2857 4.2857 0 1 1 -8.58 0 4.2857 4.2857 0 1 1 8.58 0z" fill="#fff" transform="translate(671.43 148.57)"/>
    <path id="path4291" d="m-225.71 393.79a4.2857 4.2857 0 1 1 -8.58 0 4.2857 4.2857 0 1 1 8.58 0z" fill="#fff" transform="translate(784.29 184.29)"/>
    <path id="path4293" d="m-225.71 393.79a4.2857 4.2857 0 1 1 -8.58 0 4.2857 4.2857 0 1 1 8.58 0z" fill="#fff" transform="translate(690 238.57)"/>
    <path id="path4295" d="m-225.71 393.79a4.2857 4.2857 0 1 1 -8.58 0 4.2857 4.2857 0 1 1 8.58 0z" fill="#fff" transform="translate(528.57 255.71)"/>
    <path id="path4297" d="m-225.71 393.79a4.2857 4.2857 0 1 1 -8.58 0 4.2857 4.2857 0 1 1 8.58 0z" fill="#fff" transform="translate(481.43 207.14)"/>
    <path id="path4299" d="m-225.71 393.79a4.2857 4.2857 0 1 1 -8.58 0 4.2857 4.2857 0 1 1 8.58 0z" fill="#fff" transform="translate(602.86 175.71)"/>
    <path id="path4301" d="m-225.71 393.79a4.2857 4.2857 0 1 1 -8.58 0 4.2857 4.2857 0 1 1 8.58 0z" fill="#fff" transform="translate(705.71 152.86)"/>
    <path id="path4303" d="m-225.71 393.79a4.2857 4.2857 0 1 1 -8.58 0 4.2857 4.2857 0 1 1 8.58 0z" fill="#fff" transform="translate(620 130)"/>
    <path id="path4305" d="m-225.71 393.79a4.2857 4.2857 0 1 1 -8.58 0 4.2857 4.2857 0 1 1 8.58 0z" fill="#fff" transform="translate(624.29 110)"/>
    <path id="path4307" d="m-225.71 393.79a4.2857 4.2857 0 1 1 -8.58 0 4.2857 4.2857 0 1 1 8.58 0z" fill="#fff" transform="translate(735.71 88.571)"/>
    <path id="path4309" d="m-225.71 393.79a4.2857 4.2857 0 1 1 -8.58 0 4.2857 4.2857 0 1 1 8.58 0z" fill="#fff" transform="translate(804.29 125.71)"/>
    <path id="path4311" d="m-225.71 393.79a4.2857 4.2857 0 1 1 -8.58 0 4.2857 4.2857 0 1 1 8.58 0z" fill="#fff" transform="translate(850 172.86)"/>
    <path id="path4313" d="m-225.71 393.79a4.2857 4.2857 0 1 1 -8.58 0 4.2857 4.2857 0 1 1 8.58 0z" fill="#fff" transform="translate(885.71 174.29)"/>
    <path id="path4315" d="m-225.71 393.79a4.2857 4.2857 0 1 1 -8.58 0 4.2857 4.2857 0 1 1 8.58 0z" fill="#fff" transform="translate(861.43 262.86)"/>
    <path id="path4317" d="m-225.71 393.79a4.2857 4.2857 0 1 1 -8.58 0 4.2857 4.2857 0 1 1 8.58 0z" fill="#fff" transform="translate(900 334.29)"/>
    <path id="path4319" d="m-225.71 393.79a4.2857 4.2857 0 1 1 -8.58 0 4.2857 4.2857 0 1 1 8.58 0z" fill="#fff" transform="translate(751.43 280)"/>
    <path id="path4321" d="m-225.71 393.79a4.2857 4.2857 0 1 1 -8.58 0 4.2857 4.2857 0 1 1 8.58 0z" fill="#fff" transform="translate(575.71 307.14)"/>
    <path id="path4323" d="m-225.71 393.79a4.2857 4.2857 0 1 1 -8.58 0 4.2857 4.2857 0 1 1 8.58 0z" fill="#fff" transform="translate(540 325.71)"/>
    <path id="path4325" d="m-225.71 393.79a4.2857 4.2857 0 1 1 -8.58 0 4.2857 4.2857 0 1 1 8.58 0z" fill="#fff" transform="translate(448.57 258.57)"/>
    <path id="path4327" d="m-225.71 393.79a4.2857 4.2857 0 1 1 -8.58 0 4.2857 4.2857 0 1 1 8.58 0z" fill="#fff" transform="translate(441.43 198.57)"/>
    <path id="path4329" d="m-225.71 393.79a4.2857 4.2857 0 1 1 -8.58 0 4.2857 4.2857 0 1 1 8.58 0z" fill="#fff" transform="translate(417.14 235.71)"/>
    <path id="path4331" d="m-225.71 393.79a4.2857 4.2857 0 1 1 -8.58 0 4.2857 4.2857 0 1 1 8.58 0z" fill="#fff" transform="translate(418.57 271.43)"/>
    <path id="path4333" d="m-225.71 393.79a4.2857 4.2857 0 1 1 -8.58 0 4.2857 4.2857 0 1 1 8.58 0z" fill="#fff" transform="translate(411.43 281.43)"/>
    <path id="path4335" d="m-225.71 393.79a4.2857 4.2857 0 1 1 -8.58 0 4.2857 4.2857 0 1 1 8.58 0z" fill="#fff" transform="translate(382.86 300)"/>
    <path id="path4337" d="m-225.71 393.79a4.2857 4.2857 0 1 1 -8.58 0 4.2857 4.2857 0 1 1 8.58 0z" fill="#fff" transform="translate(488.57 357.14)"/>
    <path id="path4339" d="m-225.71 393.79a4.2857 4.2857 0 1 1 -8.58 0 4.2857 4.2857 0 1 1 8.58 0z" fill="#fff" transform="translate(560 384.29)"/>
    <path id="path4341" d="m-225.71 393.79a4.2857 4.2857 0 1 1 -8.58 0 4.2857 4.2857 0 1 1 8.58 0z" fill="#fff" transform="translate(617.14 408.57)"/>
    <path id="path4343" d="m-225.71 393.79a4.2857 4.2857 0 1 1 -8.58 0 4.2857 4.2857 0 1 1 8.58 0z" fill="#fff" transform="translate(781.43 435.71)"/>
    <path id="path4345" d="m-225.71 393.79a4.2857 4.2857 0 1 1 -8.58 0 4.2857 4.2857 0 1 1 8.58 0z" fill="#fff" transform="translate(841.43 444.29)"/>
    <path id="path4347" d="m-225.71 393.79a4.2857 4.2857 0 1 1 -8.58 0 4.2857 4.2857 0 1 1 8.58 0z" fill="#fff" transform="translate(878.57 440)"/>
    <path id="path4349" d="m-225.71 393.79a4.2857 4.2857 0 1 1 -8.58 0 4.2857 4.2857 0 1 1 8.58 0z" fill="#fff" transform="translate(905.71 425.71)"/>
    <path id="path4351" d="m-225.71 393.79a4.2857 4.2857 0 1 1 -8.58 0 4.2857 4.2857 0 1 1 8.58 0z" fill="#fff" transform="translate(910 421.43)"/>
    <path id="path7293" filter="url(#filter7359)" d="m532.5 534.63c-1 0-8.56 16.07-8.56 18.22 0 1.07 0.6 3.81 1.31 6.09 0.72 2.28 1.31 5.12 1.32 6.28 0 1.85-1.87 12.61-2.29 13.13-0.08 0.1-1.22-0.3-2.5-0.91l-2.31-1.12-6 3.75c-3.3 2.05-6.07 3.64-6.15 3.53-0.09-0.11-1.01-1.67-2.04-3.47-2.89-5.09-8.59-10.34-14.53-13.31-22.57-11.32-49.3 2.96-51.43 27.46-1.21 13.86 6.67 27.42 19.56 33.63 5.81 2.8 8.16 5.03 8.19 7.75 0.04 3.85-0.65 4.23-5.97 3.34-2.63-0.43-6.53-0.99-8.66-1.25l-3.87-0.47 3.37 3.72c3.54 3.88 4.04 4.94 2.41 4.94-0.54 0-3.75 0.9-7.19 2-5.32 1.71-6.48 2.32-7.56 4.09-0.71 1.17-1.25 3.26-1.25 4.75-0.01 2.33-0.35 2.95-2.63 4.79-1.44 1.15-2.59 2.54-2.59 3.09s-0.52 0.94-1.16 0.87c-2.08-0.21-2.67 0.03-3.06 1.19-0.21 0.63-1.6 1.7-3.06 2.38-3.55 1.63-11.24 7.8-15.22 12.22-4.06 4.5-8.3 11.11-9.85 15.34-1.12 3.08-5.27 12.69-8.25 19.03-0.73 1.56-1.69 2.92-2.12 3.03-1.71 0.44-13.4 8.08-12.97 8.47 0.26 0.23 3.38 1.49 6.94 2.81 3.56 1.33 7.03 2.71 7.69 3.07 1.62 0.87 1.58 4.83-0.1 8.53-1.67 3.69-1.72 7.24-0.09 8.72 0.68 0.62 1.63 1.98 2.06 3.03 0.43 1.04 1.29 2.04 1.94 2.25 0.65 0.2 1.36 0.81 1.56 1.34 0.57 1.48 3.15 2.28 4.31 1.31 0.54-0.45 1.63-0.99 2.44-1.18 1.26-0.31 1.5-0.1 1.5 1.46 0 1.63 1.55 3.89 2.22 3.22 0.74-0.74 3-7.44 3-8.9 0-2.78-1.38-6.47-3.13-8.47-0.89-1.03-2.03-2.86-2.53-4.03-0.83-1.95-0.78-2.28 0.44-3.94 1.24-1.68 3.89-12.26 3.91-15.63 0-0.78 1.03-2.82 2.31-4.5 2.32-3.04 3.56-5.43 4.66-9.12 0.32-1.08 0.86-2.01 1.21-2.03 1.72-0.12 4.96-2.82 5.91-4.94 0.67-1.49 2.45-3.37 4.84-5.06 2.09-1.48 5.83-4.97 8.29-7.75 6.02-6.83 8.65-9.38 9.65-9.38 0.54 0 0.99 1.28 1.22 3.53 0.2 1.95 1.33 5.7 2.53 8.35l2.19 4.84v21.6l-2.31 4.25c-4.15 7.74-12.23 25.14-15.07 32.43-1.53 3.95-3.21 7.86-3.75 8.69-0.87 1.35-0.85 1.61 0.07 2.53 0.94 0.94 0.88 1.2-0.38 2.91-1.01 1.37-1.18 2.1-0.65 2.62 0.46 0.47 0.51 1.33 0.15 2.44-0.31 0.95-0.88 3.96-1.28 6.66s-1.11 6.09-1.59 7.53-1.36 5.72-1.97 9.5c-0.8 4.97-1.63 7.68-2.94 9.84-0.99 1.65-1.96 3.85-2.19 4.91-0.63 2.93-13.75 29.04-14.5 28.84-0.36-0.1-0.84-3.08-1.06-6.65-0.22-3.58-0.63-7.53-0.91-8.79-0.46-2.09-12.84-32.98-16.9-42.15-0.94-2.12-1.72-4.13-1.72-4.44s1.61-1.62 3.59-2.94l3.63-2.4-3.47-3.66c-5.93-6.27-11.88-15.17-21.94-32.87l-4.69-8.25v-5.22c0-8.32 2.92-15.04 11.41-26.41 7.4-9.91 11.74-21.7 10.16-27.59-0.39-1.46-1.55-4.01-2.57-5.69-2.62-4.32-3.96-8.71-3.96-13.09 0-7.82 4.96-13.76 17.84-21.44 19.44-11.6 30.26-20.17 31.44-24.85 0.55-2.21-1.9-6.63-5.22-9.37-1.29-1.07-7.1-4.5-12.91-7.66-17.84-9.69-25.8-14.96-34.03-22.62-6.33-5.89-6.83-6.14-11.03-4.94-1.88 0.54-4.41 1.23-5.66 1.53-3.42 0.83-4.4 3.01-3.37 7.6 0.45 2 1.42 4.41 2.15 5.34 2.48 3.15 7.92 5.05 16.85 5.94 4.2 0.41 4.21 0.42 17.31 10.28 17.15 12.9 17.34 13.08 17.34 14.28 0 2.25-3.4 4.49-24.21 15.87-13.11 7.17-20.61 10.94-21.75 10.94-1.02 0-1.72-2.77-1.72-6.65 0-2.46 0.04-2.54 2.06-2.38 1.65 0.13 2.27-0.14 2.97-1.44 1.03-1.92 0.62-6.86-0.88-10.43-0.62-1.49-0.83-3.19-0.56-4.63 0.84-4.52 0.42-12.71-0.87-16.87-3.24-10.39-8.71-14.93-19.19-15.91-8.35-0.79-11.07 0.14-15.94 5.41-5.45 5.89-7.74 11.23-9.72 22.59-0.89 5.13-1.94 10.56-2.34 12.06-0.86 3.18-5.58 13.66-6.16 13.66-0.22 0-4.44-2.87-9.37-6.38-4.94-3.51-11.52-8.14-14.66-10.28-3.14-2.13-5.72-4.13-5.72-4.4 0-0.87 9.61-11.27 13.94-15.1 14.19-12.56 25.61-18.35 35.69-18.06 7.3 0.21 9.43-1.05 11.78-7 2.06-5.2 1.77-6.22-1.75-6.22-1.24 0-4.31-0.89-6.85-1.97-7.78-3.32-10.05-2.71-15.43 4.16-3.08 3.92-3.56 4.23-19.38 12.4-15.57 8.05-25.5 13.85-27.19 15.88-1.36 1.64-2.17 1.07-4.87-3.41-3.68-6.1-4.45-6.83-6.88-6.34-1.59 0.32-2.38 0.06-3.78-1.28-2.57-2.46-11.12-6.32-15.03-6.78-2.99-0.36-3.69-0.2-6 1.4-2.39 1.66-2.92 1.78-6.5 1.38-4.71-0.54-5.91-0.01-9.69 4.25-2.35 2.65-3.35 3.25-6.34 3.87-6.2 1.29-8.47 4.61-5.81 8.41 1.58 2.27 0.69 4.18-2.78 6.06-4.05 2.19-4.5 3.64-2.47 7.47 1.88 3.55 1.98 5.35 0.5 8.47-0.94 1.97-0.96 2.68-0.25 5.06 0.45 1.52 1.74 3.63 2.87 4.69 1.94 1.82 2.26 1.89 6.13 1.53 2.25-0.21 4.09-0.24 4.09-0.03 0 0.2-0.72 0.94-1.59 1.62-4.46 3.52-3.29 13.04 1.59 13.04 1.97 0 3.97-2.02 3.88-3.91-0.05-0.88-0.12-0.86-0.44 0-0.2 0.54-0.8 1.49-1.34 2.12-3.47 3.99-7.63-3.38-4.91-8.68 1.52-2.97 2.93-2.93 3.78 0.09 0.75 2.64 2.68 5.16 4 5.16 2.44 0 2.88 7.59 0.72 12.62l-1.06 2.47-3.78-1.91c-7.52-3.76-13.21-4.07-16.13-0.84-1.61 1.78-2.21 9.4-2.72 34.63l-0.47 22.43h-8.37c-9.37 0-17.22-0.92-21-2.43-1.39-0.56-2.67-0.9-2.85-0.72-0.17 0.17 0.74 3.2 2 6.72 1.27 3.51 2.29 6.82 2.29 7.34 0 0.76-3.54 2.84-4.85 2.84-0.18 0-0.76-0.83-1.28-1.84-1.56-3.03-7.06-8.78-9.31-9.72-2.12-0.89-8.06-0.59-8.06 0.41 0 0.27 1.6 1.16 3.59 1.97 6.63 2.69 9.26 6.71 6.19 9.5-1.29 1.16-1.39 1.16-3.25-0.22-2.28-1.69-2.85-1.76-3.94-0.44-1.64 1.98 2.28 4.73 10.69 7.5 4.28 1.41 6.05 1.48 10.06 0.31 1.32-0.38 1.47-0.19 1.47 1.78-0.01 2.44-1.52 5.81-2.97 6.63-1.84 1.03-0.91 1.66 1.5 1 11.6-3.19 40.65-17.57 42.97-21.28 0.72-1.16 1.47-2.11 1.69-2.13 0.83-0.05 9.18 8.09 10.09 9.85 1.5 2.91 1.19 4.01-2.72 9.84-6.39 9.54-8.5 11.26-20.94 16.69-19.04 8.32-29.04 13.67-36.47 19.56-2.51 1.99-6.54 5.12-8.93 6.94-3.06 2.32-4.66 4.05-5.38 5.84-1.26 3.17-4.76 20.13-7.9 38.31-2.81 16.24-5.47 29.07-6.32 30.44-0.69 1.12-0.51-1.07 1.47-19.16l1.35-12.25-1.44-5.75c-3.48-14.16-7.41-23.9-17.44-43.28-11.55-22.32-15.22-30.84-15.22-35.4 0-0.93 0.74-2.56 1.63-3.6 2.38-2.78 2.64-5.36 0.97-9.9-0.79-2.14-2.09-6.12-2.91-8.82-3.534-11.68-5.852-46-3.344-49.43 0.857-1.18 0.935-1.16 3.034 0.34 1.37 0.98 1.88 1.28 1.9 0.97 0.59 0.72 1.59 1.47 1.28 1.28-1.31-0.82 1.36 3.57 5.66 9.28 2.35 3.13 4.84 6.8 5.53 8.16s1.95 2.93 2.75 3.5c1.75 1.22 2.11 1.26 3.97 0.28 2.93-1.55 8.32-6.42 21.09-19.06l9.22-9.13 2.94 2.06c5.27 3.72 10.98 3.05 14.5-1.71l1.22-1.66-3.16-3.22c-1.72-1.76-3-3.27-2.84-3.37 0.16-0.11 2.8-1.46 5.91-3 3.1-1.55 7.22-4.26 9.15-6 3.2-2.9 3.45-3.27 2.69-4.54-0.59-0.98-0.63-1.76-0.16-2.65 1.16-2.17 0.79-3.93-0.97-4.6-1.3-0.49-1.62-1.08-1.62-2.9 0-2.86-2-4.52-4.34-3.63-1.46 0.56-1.57 0.46-1.57-1.65 0-1.88-0.24-2.34-1.62-2.69-0.45-0.11-0.93-0.16-1.41-0.16-4.61 0.05-10.4 5.35-12.31 11.66-0.69 2.27-2.1 5.02-3.31 6.41l-2.16 2.46-2.41-2.37-2.37-2.34-3.5 1.9-3.53 1.88 1.28 3.43c0.71 1.87 1.31 3.91 1.31 4.54 0 1.3-8.98 8.62-13.62 11.12-7.11 3.83-9.22 2.86-13.6-6.41-1.56-3.3-2.84-6.32-2.84-6.68 0-0.37-0.67-2.04-1.28-2.53-0.24-0.2-0.88-0.52-1.6-0.85 0.19-0.29 0.39-0.59 0.6-0.87 0.19-0.15 0.77 0.15 1.25 0.47-0.13 0.28-0.23 0.55-0.22 0.68 0.02 0.36 0.19 0.25 0.37-0.22 0.05-0.11 0.11-0.17 0.16-0.25 0.1 0.08 0.2 0.17 0.25 0.22 0.02-0.09 0.12-0.26 0.22-0.43 0.17 0.04 0.35 0.18 0.62 0.4 1.04 0.86 5.21 0.28 5.88-0.81 0.58-0.94-0.83-2.22-3.88-3.47-0.95-0.39-1.54-0.56-1.81-0.56-0.8-0.73-2.62-2-4.28-3.66-1.46-1.47-3.51-4.26-4.53-6.22-1.4-2.68-2.28-3.67-3.63-3.93-1.76-0.36-7.025-5.41-6.839-6.57 0.052-0.33 1.711-0.51 3.687-0.43l3.592 0.12 2.16-3.62c2.14-3.61 2.94-4.24 3.72-2.97 1.09 1.78 2.13 0.31 3.15-4.44 0.6-2.8 1.1-5.83 1.1-6.72s0.76-3.13 1.68-4.97c1.38-2.73 2.42-3.73 5.82-5.69 4.41-2.54 6.01-4.37 7.75-8.84 1.58-4.07 1.37-8.42-0.57-12.31-3.81-7.67-8.34-10.94-19.25-13.75-5.76-1.49-7.62-1.71-12.371-1.38-7.013 0.49-14.165 2.48-19.656 5.47-5.636 3.07-8.146 5.58-10.656 10.69-1.853 3.77-2.1 4.86-2.094 9.81 0.009 6.67 1.844 11.18 5.531 13.63 1.59 1.05 2.901 2.9 4.407 6.15 1.18 2.56 2.156 5.05 2.156 5.53 0 1.22-2.46 2.64-5.313 3.07-2.068 0.3-2.77 0.01-5.187-2.07l-2.813-2.37-6.25 0.19c-5.82 0.17-6.516 0.04-10.375-1.82-2.278-1.09-4.24-2-4.343-2-0.104 0-0.578 0.91-1.032 2-0.762 1.85-0.671 2.16 1.032 3.94 1.012 1.06 1.716 2 1.562 2.13-0.153 0.13-1.774 1.08-3.594 2.09-2.942 1.63-3.521 2.33-5.343 6.47-1.127 2.56-2.975 7.19-4.094 10.25-1.12 3.06-2.339 6.29-2.719 7.19-0.946 2.24-3.812 10.6-3.812 11.12 0 0.24 3.727-1.47 8.25-3.78 4.522-2.31 8.342-4.03 8.531-3.84 0.278 0.28-6.337 31.27-11.375 53.31-1.069 4.67-1.897 5.63-3.375 3.84-0.552-0.66-0.569-1.8-0.031-4.31 0.398-1.86 0.58-3.73 0.406-4.19-0.174-0.45-1.655-1.55-3.313-2.43l-3-1.6-2.468 2.85c-1.655 1.92-2.853 2.78-3.719 2.62-1.152-0.21-1.446 0.56-2.75 7.63-0.798 4.32-1.6265 9.82-1.8751 12.25-0.4503 4.38-0.4631 4.4 1.7811 6.65 2.177 2.18 6.025 3.57 7.906 2.85 0.464-0.18 1.217-1.85 1.688-3.69s1.131-3.35 1.469-3.35 2.09 0.75 3.875 1.66c3.682 1.87 3.676 1.88 2.5 9.81-0.406 2.73-0.593 5.13-0.407 5.32 0.187 0.18 3.226 0.75 6.75 1.28 3.525 0.53 6.51 1.07 6.625 1.18 0.116 0.12-0.243 1.06-0.781 2.1-4.317 8.34-1.942 28.5 6.5 55.28 1.192 3.78 2.31 8.35 2.5 10.16 0.19 1.8 1.292 7.1 2.438 11.78 2.672 10.92 2.807 16.31 0.5 21.28-1.859 4-4.07 6.44-9.532 10.5-4.26 3.16-9.674 9.17-18.718 20.78l-6.282 8.03 2.032 7.03c3.725 12.9 4.4 14.82 12.25 34.66l5 12.59 4.593-0.37c7.204-0.57 7.532-0.67 7.532-2.85 0-4.41 7.806-30.55 14.875-49.78 9.065-24.66 12.653-34.31 15-40.28l2.593-6.53-2.406-32.09c-2.136-28.53-2.403-34.45-1.531-32.1 0.133 0.36 1.978 3.75 4.125 7.53s5.668 10.31 7.812 14.5c3.741 7.31 21.356 40.34 23.376 43.82 1.06 1.83 1.05 1.88-17.688 33.03-9.787 16.27-14.77 28.63-21.063 52.28-1.616 6.07-2.856 11.11-2.75 11.19 0.798 0.58 52.911 3.49 59.311 3.31s6.28-0.12 5-1.53c-1.06-1.18-0.93-1.25 3.5-1.69l4.6-0.47v-2.28c0-9.46 6.18-14.34 9.59-7.56 0.79 1.56 1.63 4.42 1.87 6.37l0.44 3.56h5.47c5.45 0 5.5 0 5.5-1.68 0-1.66-1.09-15.29-1.59-20.07l-0.25-2.4 7.78 0.37 7.78 0.41v-1.5c0-0.83-0.6-4.91-1.31-9.09-0.71-4.19-2.6-16.39-4.22-27.1l-2.97-19.47v-37.97l4.94-3.12c9.67-6.12 35.98-23.48 41.31-27.25 2.98-2.11 5.55-3.7 5.72-3.53 0.16 0.16-1.94 4.4-4.69 9.4-13.49 24.52-18.12 34.04-20.41 41.85-1.38 4.74-1.33 3.58-3.78 72.12l-0.37 11.22 4.9 0.47c2.71 0.25 6.26 0.35 7.91 0.22s3-0.08 3 0.12-2.17 1.03-4.84 1.82c-2.67 0.78-5.68 2.13-6.69 3-1.68 1.45-1.84 2.01-2.06 6.87-0.14 2.92-0.08 5.98 0.12 6.78l0.35 1.47 13.43-0.19 13.44-0.18v-3.41c0.04-8.32 6.04-13.47 9.25-7.94 0.65 1.11 1.36 3.45 1.56 5.22 0.76 6.6 0.34 6.19 6.19 6.19h5.19v-1.88c0-1.02-0.32-5.8-0.72-10.59-0.65-7.8-0.63-8.75 0.31-9.28 0.95-0.53 0.98-0.76 0.1-2.47-1.25-2.41-1.27-4.88-0.04-5.91 0.53-0.43 2.35-1.13 4.04-1.56s3.39-1.28 3.75-1.84c0.97-1.55-0.74-6.02-7.82-20.66-11.46-23.72-14.2-31.63-14.09-40.53 0.17-13.66 5.58-27.31 16.5-41.59 15.95-20.87 17.99-24.15 19.87-32.16 3.36-14.24-2.01-25.93-16.12-35.06-2.05-1.33-4.02-3.04-4.38-3.81-0.92-2.02 0.88-10.11 3.32-14.94 1.61-3.21 1.9-4.44 1.59-6.72-0.28-2.03-0.16-2.78 0.44-2.78 1.21 0 5.26 4.44 12.53 13.75 3.51 4.5 7.63 9.5 9.16 11.12 1.52 1.62 6.83 8.83 11.78 16.03 4.95 7.21 9.59 13.9 10.31 14.88 1.27 1.73 1.31 1.94 0.28 8.19-1.54 9.38-1.74 11.34-1.91 21.68-0.16 10.45-0.32 10.04 4.69 11.6l2.28 0.72 0.41 14.03c0.22 7.71 0.72 16.53 1.12 19.59 0.41 3.06 0.81 9.25 0.91 13.75l0.19 8.19-2.19-0.22c-2.08-0.2-2.18-0.14-1.84 1.63 0.19 1.01 0.87 12.7 1.5 25.93l-0.19 55.16 5.66 1.97c3.45 0 8.16-31.84 7.68-32.31 0.14 0.07 0.94 0.62 1.07 0.5 0.14-0.16 0.88-5.59 1.65-12.07s1.54-12.8 1.69-14.06c1.35-11.22 1.84-21.26 2.91-59.16 0.3-10.73 0.7-19.67 0.9-19.87s5.01 0.15 10.69 0.78c7.42 0.83 12.56 1.02 18.28 0.72l7.94-0.41 4.94 7.03c2.71 3.88 7.24 10.1 10.09 13.82 5.47 7.14 8.55 12.97 10.22 19.4 1.39 5.37 1.31 6.25-0.5 6.25-1.47 0-1.48 0.09-1 4.41 0.27 2.43 0.51 8.42 0.53 13.28 0.04 7.94-0.28 10.39-3 24.41-2.96 15.22-3.1 15.68-5.56 18.81-1.39 1.76-2.53 3.5-2.53 3.84 0 0.35 0.72 1.19 1.59 1.88 1.36 1.07 1.67 2.04 2.12 6.75 0.52 5.31 0.58 5.52 2.25 5.72 1.7 0.19 1.75 0.28 1.41 4.03-0.31 3.41-0.21 3.9 1.03 4.56 0.76 0.41 2.91 0.8 4.78 0.88 3.38 0.14 3.42 0.13 4.97-2.66l1.56-2.81 1.72 1.72c2.75 2.74 11.64 6.7 17.44 7.75 6.55 1.18 10.24 1.25 12.38 0.28 2.86-1.31 2.14-3.55-2.22-6.75-2.39-1.76-3.13-2.68-3.13-4.03 0-1.05-0.62-2.26-1.5-2.97-1.92-1.56-1.42-2 1.38-1.19 4.06 1.17 3.87 1.71 3.87-11.47v-12.12l3.28-12.6c1.8-6.93 4.27-16.41 5.53-21.09 1.27-4.68 2.28-9.85 2.29-11.47 0-1.62 0.33-3.99 0.71-5.25s0.95-3.9 1.25-5.88c0.41-2.6 1.59-5.31 4.32-9.81 2.07-3.42 5.01-8.88 6.53-12.12 2.53-5.4 3.51-8.2 5.47-15.78 0.38-1.48 2.23-5.28 4.15-8.47 2.69-4.47 4.33-6.39 7.1-8.35l3.59-2.53 6.53 6.75c23.21 23.97 28.46 29.21 32.35 32.35l4.31 3.5-1.19 4.59c-1.79 6.83-2.8 19.79-2.41 30.72 0.4 10.83-0.4 17.12-4.46 34.69-1.28 5.52-2.17 10.2-1.97 10.4s2.72 0.12 5.62-0.22c2.91-0.34 5.42-0.48 5.53-0.28 0.12 0.2 0.4 3.24 0.66 6.75 0.43 5.79 0.61 6.43 1.87 6.72 4.21 0.95 7.26 1.55 7.35 1.44 0.05-0.07 0.89-1.67 1.84-3.56 2.58-5.15 4.28-4.73 7.56 1.96 2.12 4.31 3.77 5.4 10.13 6.69 15.66 3.19 22.22-5.07 8.12-10.22-3.82-1.4-6.28-3.62-8.34-7.56-1.05-2-1.12-1.97 2.38-2.44 1.73-0.23 3.65-0.77 4.25-1.22 0.98-0.73 0.98-1.09 0.12-3.56-0.52-1.5-1.26-4.73-1.66-7.19-0.39-2.45-2.42-12.56-4.53-22.46-5.02-23.64-5.62-26.82-7.22-37.66-1.75-11.91-2.74-15.33-6.21-21.06-1.58-2.61-4.23-7.74-5.88-11.41-1.64-3.67-4.38-9.37-6.06-12.66-1.68-3.28-3.14-6.14-3.25-6.37s0.62-0.72 1.62-1.09c1.01-0.38 4.19-1.61 7.07-2.72l5.21-2.03 2.47 2.81c1.36 1.54 3.7 5.31 5.22 8.37s2.87 5.68 2.97 5.85c0.1 0.16 1.17-0.73 2.41-1.97 1.41-1.42 3.49-4.99 5.53-9.66 3.09-7.07 4.26-9.03 8.19-13.53l1.71-1.97-0.31 2.28c-0.85 5.96-1.82 19-1.62 21.91 0.19 2.85 0.49 3.4 2.31 4.47 1.14 0.66 4.06 1.55 6.47 2l4.34 0.81 6.78 17.31c3.73 9.53 6.78 17.93 6.78 18.66 0 3.42-4.51 19.14-11.68 40.62-4.33 12.95-8.2 25.05-8.6 26.91-0.69 3.24-0.62 3.55 1.66 8.09 2.96 5.9 7.52 10.85 11.78 12.85 4.73 2.22 10.93 2.15 15.69-0.19 4.61-2.26 13.37-9.31 15.97-12.84 3.06-4.17 3.17-5.43 0.72-7.97-2.55-2.63-4.62-8.8-7.29-21.78-3.1-15.1-2.51-24.15 2.32-37 2.69-7.17 2.67-9.35 0.12-21.78-2.74-13.37-4.81-27.6-4.12-28.29 0.56-0.56 12.95-2.15 13.65-1.75 0.26 0.15 2.1 3.16 4.13 6.66 2.02 3.5 6.12 10.49 9.09 15.53 9.28 15.73 9.08 15.14 8.66 23.53-0.28 5.57-1.06 9.93-3.38 19.03-5.79 22.71-7.64 35.98-8.53 60.72l-0.31 9h1.69c1.51 0 1.66-0.2 1.28-1.72-0.24-0.94-0.55-2.65-0.72-3.78-0.25-1.67 0-1.39 1.34 1.44 1.54 3.25 1.77 3.47 3.75 3.28 2.07-0.2 2.12-0.3 2.32-3.69 0.17-3.03 0.43-3.53 1.9-4.09 0.93-0.35 2.63-0.47 3.81-0.25 1.74 0.33 2.19 0.2 2.44-0.78 0.22-0.84 0.36-0.69 0.41 0.53 0.04 1.05 0.7 2.22 1.69 2.94 0.9 0.66 2.65 3.13 3.84 5.47 2.03 4 2.3 4.27 4.62 4.47 1.86 0.15 2.87-0.19 4.04-1.29 1.55-1.46 2.27-0.9 0.78 0.6-0.61 0.61 0.63 0.81 5.56 0.81 5.47 0 6.5-0.18 7.62-1.31 2.53-2.53 0.73-8.16-2.78-8.66-0.93-0.13-1.52-0.71-1.65-1.65-0.2-1.38 0.03-1.47 3.37-1.47 5.57 0 5.7-0.17 4.19-4.16-1.8-4.74-5.52-18.54-7-25.97-1.55-7.76-2.35-15.32-3.63-34.06-1.19-17.48-2.68-31.91-3.65-35.63-1.41-5.37-12.69-29.12-21.16-44.56-1.18-2.16-2.37-5.42-2.62-7.22-0.81-5.83-5.37-22.7-8.72-32.18-5.36-15.17-8.68-30.36-9.66-44.35l-0.37-5.31 3.87 5.91c6.79 10.35 13.91 18.46 24.06 27.43 10.53 9.3 16.23 16.4 24.16 30 2.47 4.23 4.82 7.69 5.22 7.69 0.39 0 1.17-0.94 1.72-2.09 0.92-1.96 1.02-0.76 1.37 16.87l0.41 18.94 2.91 11.81c4.17 16.9 4.64 21.36 4 37.16-0.3 7.28-0.47 26.05-0.38 41.72l0.16 28.5 5.62 2.43c3.11 1.35 6.03 2.47 6.5 2.47 1.22 0 1.07 0.93-0.72 4.47-2.32 4.6-3.83 10.4-3.4 13.03 0.76 4.69 5.19 7.38 12.18 7.38 5.32 0 8.56-1.13 10.13-3.53 0.95-1.46 1.04-2.57 0.53-8.41-0.32-3.7-0.47-9.17-0.34-12.16 0.22-5.13 0.32-5.49 1.9-6.09l1.69-0.62-0.44-6.69c-0.91-14.12-3.67-41.63-4.62-46.16-0.55-2.61-1.43-8.08-1.97-12.19-0.89-6.77-0.9-7.74 0.06-10.56 0.82-2.4 1-4.6 0.72-9.65-0.26-4.76-0.11-7.26 0.56-9.16 1.26-3.56 1.17-5.65-0.37-8.69-1.43-2.81-1.75-10.13-0.69-16.34 0.31-1.8 0.94-8.4 1.41-14.66l0.87-11.37 1.85 2.18c2.9 3.44 7.38 13.28 9.65 21.19 2.37 8.25 3.85 12.49 6.06 16.72v-229.56c-0.55-0.21-1.09-0.01-1.87 0.4-0.93 0.5-4.08 3.28-7.03 6.19-7.46 7.36-10.36 13.52-8.25 17.47 0.66 1.24 7.9 5.16 9.53 5.16 0.82 0 0.74 6.14-0.13 10.97l-0.46 2.78h2.06c1.22 0 1.92 0.27 1.69 0.65-0.23 0.36-1.36 0.66-2.5 0.66-5.78 0.01-8.48 4.62-11.91 20.28-2.35 10.74-5.29 18.56-10.13 26.84-0.94 1.62-4.03 7.09-6.84 12.13s-7.16 12.53-9.66 16.66c-6.66 11.01-6.93 13.01-1.59 12.28l2.94-0.44-0.31 3.09c-0.17 1.7-0.38 3.44-0.5 3.85-0.34 1.1-9.28 1.7-13.41 0.9-1.98-0.38-5.19-1.51-7.16-2.5-3.92-1.97-11.38-8.91-15.56-14.53-3.82-5.13-10.44-16.2-14.5-24.22-4.65-9.2-8.88-15.55-11.19-16.75-1.21-0.63-4.81-1.14-10.06-1.4-4.5-0.23-8.19-0.66-8.19-0.97s1.51-2.5 3.35-4.85c1.84-2.34 3.2-4.41 3.03-4.59-0.18-0.17-4.53 1.58-9.69 3.91-5.16 2.32-9.57 4.11-9.81 3.97-0.24-0.15-0.37-1.89-0.31-3.85 0.08-3.06 0.34-3.77 1.9-5 1.79-1.41 1.87-1.39 4.03-0.22 1.8 0.97 2.5 1.02 3.85 0.41 3.92-1.79 5.19-9.64 2.47-15.28l-1.41-2.91 1.91-4.56c1.04-2.51 2.52-7.34 3.31-10.72 1.41-6.04 1.43-6.23 0.31-11.12-1.44-6.29-3.5-10.17-8.09-15.25-4.63-5.13-9.52-8.28-13.6-8.79-1.71-0.21-5.04-0.94-7.37-1.59-2.34-0.65-6.69-1.38-9.66-1.59-4.74-0.35-6-0.17-10.44 1.34-3.68 1.25-5.82 2.46-7.87 4.44-2.94 2.83-7.81 9.97-10.97 16.12-1.4 2.73-1.92 3.29-2.12 2.32-0.59-2.77 0.46-12.03 1.81-16.07 1.32-3.95 1.4-5.92 0.37-8.59-0.28-0.72 0.03-1.17 0.94-1.41 0.74-0.19 1.54-0.87 1.78-1.5 0.7-1.83-0.98-7.02-2.78-8.62-1.79-1.6-4.76-1.96-6-0.72-1.59 1.59-1.52-0.17 0.19-5.31 1.67-5.04 1.77-7.22 0.37-7.22zm-418.06 102.87c-0.01 0.07-0.02 0.13 0.03 0.13 0.06 0 0.04-0.06-0.03-0.13zm394-51.59c0.02-0.02 0.08-0.01 0.16 0 1.2 0.14 8.98 3.09 9.68 3.72 0.31 0.27 0.11 1.18-0.43 2.03-1.27 1.97-2.62 5.55-4.32 11.44-0.74 2.59-2.51 6.39-3.96 8.53-1.44 2.12-3.23 5.69-3.97 7.94-0.75 2.24-1.62 4.23-1.94 4.43s-0.9 1.55-1.28 2.97c-0.38 1.43-0.96 2.6-1.28 2.6-0.33 0-1.56 1.01-2.75 2.25-1.38 1.43-3.07 2.4-4.63 2.68-2.8 0.5-3.25-0.09-0.78-1.03 1.83-0.69 3.79-4.54 3.16-6.19-0.26-0.65 0.98-2.54 3.5-5.4 2.14-2.43 4.65-5.66 5.59-7.16 4.14-6.63 5.77-16.82 3.94-24.72-0.49-2.12-0.81-3.97-0.69-4.09zm26.16 14.19c0.23 0 0.6 1.48 0.84 3.31 0.24 1.82 0.82 3.69 1.28 4.16 0.46 0.46 1.3 1.91 1.85 3.21 1.36 3.27 6.28 8.39 10.93 11.38 3.16 2.02 3.8 2.75 3.47 3.81-0.72 2.33-1.1 8.71-0.65 11.06 0.55 2.94 3.31 6.29 5.21 6.29 3.23 0 5.63-4.51 5.63-10.6v-3.9l2.72 2.31c1.5 1.29 4.33 2.86 6.25 3.47l3.5 1.09-0.22 4.31-0.16 4.28-13.09 0.72c-7.19 0.41-13.2 0.77-13.38 0.82-0.17 0.04 2.14 1.62 5.13 3.5l5.44 3.43-2.25 0.78c-6.45 2.24-11.63 6.28-13.97 10.91-1.3 2.58-1.81 4.89-2.25 10.25-0.59 7.12-3.15 36.96-4.88 56.69-1.33 15.24-1.29 15.08-4.37 18.44-3.59 3.89-7.07 5.85-13.25 7.43-2.82 0.72-5.25 1.44-5.41 1.6-0.16 0.15 0.84 0.74 2.19 1.31s2.31 1.12 2.16 1.28c-0.16 0.16-2.79 0.84-5.85 1.5l-5.56 1.22-5.91-6.25c-8.38-8.86-8.11-8.18-5.06-13.19 14.94-24.53 22.76-48.71 21.59-66.72-0.22-3.42-1.24-11.35-2.28-17.65-1.8-10.99-1.84-11.53-0.75-13.1 0.63-0.9 1.74-2.84 2.47-4.28 0.74-1.44 2.35-3.74 3.6-5.09 1.68-1.83 2.57-3.65 3.4-7.06 0.62-2.54 2.08-6.59 3.25-9 1.18-2.41 2.37-5.7 2.63-7.32s0.88-3.74 1.37-4.72c0.5-0.97 0.91-2.91 0.91-4.31 0-1.8 0.42-2.95 1.5-3.97 0.83-0.78 1.73-1.4 1.97-1.4zm-171.13 10.09c0.93-0.19 2.16 5.64 1.44 8.5-0.43 1.73-2.54 2.35-3.38 1-0.36-0.59 0.31-4.52 1.47-8.72 0.14-0.5 0.3-0.74 0.47-0.78zm-96.03 3.28c0.53-0.07 2 1.03 4.09 3.06 5.41 5.26 9.2 8.06 21.1 15.63l10.53 6.69-1.13 1.75c-6.91 10.73-18.58 21-30.96 27.28l-3.6 1.81 2.28 0.97c1.25 0.52 5.39 1.47 9.22 2.12 3.83 0.66 9.95 2.23 13.6 3.5 13.07 4.56 35.69 13.12 36.06 13.66 0.63 0.92-0.58 7.97-2.03 11.88-0.76 2.01-2.53 5.4-3.94 7.53-1.42 2.12-2.96 4.14-3.41 4.5-1.67 1.32-12.22-1.59-21.78-6.03-8.19-3.82-13.12-7.33-18.15-12.94-8.88-9.9-12.49-15.88-15.1-24.88-0.82-2.82-2.21-6.19-3.06-7.47-2.44-3.68-7.86-7.16-14.66-9.43-3.74-1.25-6.15-2.4-6.15-2.94 0-0.49 1.24-1.87 2.75-3.06 1.5-1.19 4.05-3.4 5.65-4.94 1.91-1.83 3.3-2.67 4.03-2.44 0.62 0.2 1.62 0.14 2.22-0.09 2.76-1.06 4.02-8.32 1.97-11.25-0.92-1.33-0.9-1.78 0-4.91 1.12-3.86 2.59-5.52 6.91-7.69 1.62-0.81 3.15-1.81 3.4-2.21 0.04-0.06 0.09-0.09 0.16-0.1zm331.91 1.38c0.49-0.03 0.93 0.67 1.78 2.59 1.62 3.66 1.47 8.99-0.31 11.72-1.27 1.94-4.33 2.33-5.66 0.72-0.66-0.8-0.54-1.58 0.53-4.1 0.73-1.71 1.5-4.62 1.75-6.5 0.25-1.87 0.87-3.76 1.38-4.18 0.18-0.16 0.36-0.24 0.53-0.25zm-44.53 10.78c0.13 0 1.45 0.59 2.93 1.31 1.49 0.72 3.01 1.31 3.35 1.31 0.87 0 1.4 1.68 1.4 4.47 0 3.4-1.04 6.62-2.72 8.41-1.73 1.85-1.9 1.85-3.93 0.25-2.92-2.3-4.05-9.09-2.22-13.47 0.52-1.25 1.06-2.28 1.19-2.28zm-298.72 2.5c0.57 0.03 1.24 2.38 1.25 4.78 0 2.08-0.42 3.53-1.35 4.72-1.33 1.7-2.84 2.24-3.47 1.22-0.27-0.45 2.63-9.72 3.32-10.57 0.07-0.09 0.16-0.16 0.25-0.15zm-140.53 5.19h0.06c0.06 0.15 0.08 0.31 0.06 0.5-0.32-0.25-0.31-0.5-0.12-0.5zm-11.97 25.18c-0.08 0.32-0.12 0.59-0.16 0.82-0.02-0.36 0.01-0.65 0.16-0.82zm454.9 25.5c0.05-0.01 0.08-0.01 0.13 0 0.17 0.04 0.36 0.23 0.56 0.57 0.32 0.54 2.41 3.33 4.66 6.18 8.55 10.87 14.18 20.41 14.81 25.19 0.75 5.71-10.25 27.51-18.47 36.63-2.23 2.47-4.36 3.41-5.09 2.21-2.85-4.67-2.37-27.93 1.28-59.9 0.86-7.59 1.44-10.64 2.12-10.88zm-46.06 84.38c1.15-0.05 2.36 0.1 2.63 0.53 0.19 0.31-0.33 1.19-1.16 1.97-1.46 1.37-1.54 1.39-2.59 0.22-0.6-0.67-1.1-1.55-1.1-1.97 0-0.44 1.08-0.7 2.22-0.75zm-346.94 117.75c0.02-0.01 0.02-0.01 0.03 0 0.04 0.02 0.09 0.09 0.13 0.25 0.16 0.63 0.16 1.68 0 2.31s-0.31 0.1-0.31-1.16c0-0.82 0.07-1.33 0.15-1.4zm-34.28 4.03h2.78c4.9 0.02 5.14 1.13 0.91 4.41-2.93 2.26-3.69 1.89-3.69-1.91v-2.5zm169.35 32.09l1.37 3.44c0.77 1.89 1.72 3.64 2.09 3.91 0.38 0.26 2.07 0.46 3.75 0.47l3.07 0.03 1.9-3.94 1.88-3.91-5.72 1.97-8.34-1.97z" fill="#fff"/>
    <path id="path2497" d="m532.5 534.63c-1 0-8.56 16.07-8.56 18.22 0 1.07 0.6 3.81 1.31 6.09 0.72 2.28 1.31 5.12 1.32 6.28 0 1.85-1.87 12.61-2.29 13.13-0.08 0.1-1.22-0.3-2.5-0.91l-2.31-1.12-6 3.75c-3.3 2.05-6.07 3.64-6.15 3.53-0.09-0.11-1.01-1.67-2.04-3.47-2.89-5.09-8.59-10.34-14.53-13.31-22.57-11.32-49.3 2.96-51.43 27.46-1.21 13.86 6.67 27.42 19.56 33.63 5.81 2.8 8.16 5.03 8.19 7.75 0.04 3.85-0.65 4.23-5.97 3.34-2.63-0.43-6.53-0.99-8.66-1.25l-3.87-0.47 3.37 3.72c3.54 3.88 4.04 4.94 2.41 4.94-0.54 0-3.75 0.9-7.19 2-5.32 1.71-6.48 2.32-7.56 4.09-0.71 1.17-1.25 3.26-1.25 4.75-0.01 2.33-0.35 2.95-2.63 4.79-1.44 1.15-2.59 2.54-2.59 3.09s-0.52 0.94-1.16 0.87c-2.08-0.21-2.67 0.03-3.06 1.19-0.21 0.63-1.6 1.7-3.06 2.38-3.55 1.63-11.24 7.8-15.22 12.22-4.06 4.5-8.3 11.11-9.85 15.34-1.12 3.08-5.27 12.69-8.25 19.03-0.73 1.56-1.69 2.92-2.12 3.03-1.71 0.44-13.4 8.08-12.97 8.47 0.26 0.23 3.38 1.49 6.94 2.81 3.56 1.33 7.03 2.71 7.69 3.07 1.62 0.87 1.58 4.83-0.1 8.53-1.67 3.69-1.72 7.24-0.09 8.72 0.68 0.62 1.63 1.98 2.06 3.03 0.43 1.04 1.29 2.04 1.94 2.25 0.65 0.2 1.36 0.81 1.56 1.34 0.57 1.48 3.15 2.28 4.31 1.31 0.54-0.45 1.63-0.99 2.44-1.18 1.26-0.31 1.5-0.1 1.5 1.46 0 1.63 1.55 3.89 2.22 3.22 0.74-0.74 3-7.44 3-8.9 0-2.78-1.38-6.47-3.13-8.47-0.89-1.03-2.03-2.86-2.53-4.03-0.83-1.95-0.78-2.28 0.44-3.94 1.24-1.68 3.89-12.26 3.91-15.63 0-0.78 1.03-2.82 2.31-4.5 2.32-3.04 3.56-5.43 4.66-9.12 0.32-1.08 0.86-2.01 1.21-2.03 1.72-0.12 4.96-2.82 5.91-4.94 0.67-1.49 2.45-3.37 4.84-5.06 2.09-1.48 5.83-4.97 8.29-7.75 6.02-6.83 8.65-9.38 9.65-9.38 0.54 0 0.99 1.28 1.22 3.53 0.2 1.95 1.33 5.7 2.53 8.35l2.19 4.84v21.6l-2.31 4.25c-4.15 7.74-12.23 25.14-15.07 32.43-1.53 3.95-3.21 7.86-3.75 8.69-0.87 1.35-0.85 1.61 0.07 2.53 0.94 0.94 0.88 1.2-0.38 2.91-1.01 1.37-1.18 2.1-0.65 2.62 0.46 0.47 0.51 1.33 0.15 2.44-0.31 0.95-0.88 3.96-1.28 6.66s-1.11 6.09-1.59 7.53-1.36 5.72-1.97 9.5c-0.8 4.97-1.63 7.68-2.94 9.84-0.99 1.65-1.96 3.85-2.19 4.91-0.63 2.93-13.75 29.04-14.5 28.84-0.36-0.1-0.84-3.08-1.06-6.65-0.22-3.58-0.63-7.53-0.91-8.79-0.46-2.09-12.84-32.98-16.9-42.15-0.94-2.12-1.72-4.13-1.72-4.44s1.61-1.62 3.59-2.94l3.63-2.4-3.47-3.66c-5.93-6.27-11.88-15.17-21.94-32.87l-4.69-8.25v-5.22c0-8.32 2.92-15.04 11.41-26.41 7.4-9.91 11.74-21.7 10.16-27.59-0.39-1.46-1.55-4.01-2.57-5.69-2.62-4.32-3.96-8.71-3.96-13.09 0-7.82 4.96-13.76 17.84-21.44 19.44-11.6 30.26-20.17 31.44-24.85 0.55-2.21-1.9-6.63-5.22-9.37-1.29-1.07-7.1-4.5-12.91-7.66-17.84-9.69-25.8-14.96-34.03-22.62-6.33-5.89-6.83-6.14-11.03-4.94-1.88 0.54-4.41 1.23-5.66 1.53-3.42 0.83-4.4 3.01-3.37 7.6 0.45 2 1.42 4.41 2.15 5.34 2.48 3.15 7.92 5.05 16.85 5.94 4.2 0.41 4.21 0.42 17.31 10.28 17.15 12.9 17.34 13.08 17.34 14.28 0 2.25-3.4 4.49-24.21 15.87-13.11 7.17-20.61 10.94-21.75 10.94-1.02 0-1.72-2.77-1.72-6.65 0-2.46 0.04-2.54 2.06-2.38 1.65 0.13 2.27-0.14 2.97-1.44 1.03-1.92 0.62-6.86-0.88-10.43-0.62-1.49-0.83-3.19-0.56-4.63 0.84-4.52 0.42-12.71-0.87-16.87-3.24-10.39-8.71-14.93-19.19-15.91-8.35-0.79-11.07 0.14-15.94 5.41-5.45 5.89-7.74 11.23-9.72 22.59-0.89 5.13-1.94 10.56-2.34 12.06-0.86 3.18-5.58 13.66-6.16 13.66-0.22 0-4.44-2.87-9.37-6.38-4.94-3.51-11.52-8.14-14.66-10.28-3.14-2.13-5.72-4.13-5.72-4.4 0-0.87 9.61-11.27 13.94-15.1 14.19-12.56 25.61-18.35 35.69-18.06 7.3 0.21 9.43-1.05 11.78-7 2.06-5.2 1.77-6.22-1.75-6.22-1.24 0-4.31-0.89-6.85-1.97-7.78-3.32-10.05-2.71-15.43 4.16-3.08 3.92-3.56 4.23-19.38 12.4-15.57 8.05-25.5 13.85-27.19 15.88-1.36 1.64-2.17 1.07-4.87-3.41-3.68-6.1-4.45-6.83-6.88-6.34-1.59 0.32-2.38 0.06-3.78-1.28-2.57-2.46-11.12-6.32-15.03-6.78-2.99-0.36-3.69-0.2-6 1.4-2.39 1.66-2.92 1.78-6.5 1.38-4.71-0.54-5.91-0.01-9.69 4.25-2.35 2.65-3.35 3.25-6.34 3.87-6.2 1.29-8.47 4.61-5.81 8.41 1.58 2.27 0.69 4.18-2.78 6.06-4.05 2.19-4.5 3.64-2.47 7.47 1.88 3.55 1.98 5.35 0.5 8.47-0.94 1.97-0.96 2.68-0.25 5.06 0.45 1.52 1.74 3.63 2.87 4.69 1.94 1.82 2.26 1.89 6.13 1.53 2.25-0.21 4.09-0.24 4.09-0.03 0 0.2-0.72 0.94-1.59 1.62-4.46 3.52-3.29 13.04 1.59 13.04 1.97 0 3.97-2.02 3.88-3.91-0.05-0.88-0.12-0.86-0.44 0-0.2 0.54-0.8 1.49-1.34 2.12-3.47 3.99-7.63-3.38-4.91-8.68 1.52-2.97 2.93-2.93 3.78 0.09 0.75 2.64 2.68 5.16 4 5.16 2.44 0 2.88 7.59 0.72 12.62l-1.06 2.47-3.78-1.91c-7.52-3.76-13.21-4.07-16.13-0.84-1.61 1.78-2.21 9.4-2.72 34.63l-0.47 22.43h-8.37c-9.37 0-17.22-0.92-21-2.43-1.39-0.56-2.67-0.9-2.85-0.72-0.17 0.17 0.74 3.2 2 6.72 1.27 3.51 2.29 6.82 2.29 7.34 0 0.76-3.54 2.84-4.85 2.84-0.18 0-0.76-0.83-1.28-1.84-1.56-3.03-7.06-8.78-9.31-9.72-2.12-0.89-8.06-0.59-8.06 0.41 0 0.27 1.6 1.16 3.59 1.97 6.63 2.69 9.26 6.71 6.19 9.5-1.29 1.16-1.39 1.16-3.25-0.22-2.28-1.69-2.85-1.76-3.94-0.44-1.64 1.98 2.28 4.73 10.69 7.5 4.28 1.41 6.05 1.48 10.06 0.31 1.32-0.38 1.47-0.19 1.47 1.78-0.01 2.44-1.52 5.81-2.97 6.63-1.84 1.03-0.91 1.66 1.5 1 11.6-3.19 40.65-17.57 42.97-21.28 0.72-1.16 1.47-2.11 1.69-2.13 0.83-0.05 9.18 8.09 10.09 9.85 1.5 2.91 1.19 4.01-2.72 9.84-6.39 9.54-8.5 11.26-20.94 16.69-19.04 8.32-29.04 13.67-36.47 19.56-2.51 1.99-6.54 5.12-8.93 6.94-3.06 2.32-4.66 4.05-5.38 5.84-1.26 3.17-4.76 20.13-7.9 38.31-2.81 16.24-5.47 29.07-6.32 30.44-0.69 1.12-0.51-1.07 1.47-19.16l1.35-12.25-1.44-5.75c-3.48-14.16-7.41-23.9-17.44-43.28-11.55-22.32-15.22-30.84-15.22-35.4 0-0.93 0.74-2.56 1.63-3.6 2.38-2.78 2.64-5.36 0.97-9.9-0.79-2.14-2.09-6.12-2.91-8.82-3.534-11.68-5.852-46-3.344-49.43 0.857-1.18 0.935-1.16 3.034 0.34 1.37 0.98 1.88 1.28 1.9 0.97 0.59 0.72 1.59 1.47 1.28 1.28-1.31-0.82 1.36 3.57 5.66 9.28 2.35 3.13 4.84 6.8 5.53 8.16s1.95 2.93 2.75 3.5c1.75 1.22 2.11 1.26 3.97 0.28 2.93-1.55 8.32-6.42 21.09-19.06l9.22-9.13 2.94 2.06c5.27 3.72 10.98 3.05 14.5-1.71l1.22-1.66-3.16-3.22c-1.72-1.76-3-3.27-2.84-3.37 0.16-0.11 2.8-1.46 5.91-3 3.1-1.55 7.22-4.26 9.15-6 3.2-2.9 3.45-3.27 2.69-4.54-0.59-0.98-0.63-1.76-0.16-2.65 1.16-2.17 0.79-3.93-0.97-4.6-1.3-0.49-1.62-1.08-1.62-2.9 0-2.86-2-4.52-4.34-3.63-1.46 0.56-1.57 0.46-1.57-1.65 0-1.88-0.24-2.34-1.62-2.69-0.45-0.11-0.93-0.16-1.41-0.16-4.61 0.05-10.4 5.35-12.31 11.66-0.69 2.27-2.1 5.02-3.31 6.41l-2.16 2.46-2.41-2.37-2.37-2.34-3.5 1.9-3.53 1.88 1.28 3.43c0.71 1.87 1.31 3.91 1.31 4.54 0 1.3-8.98 8.62-13.62 11.12-7.11 3.83-9.22 2.86-13.6-6.41-1.56-3.3-2.84-6.32-2.84-6.68 0-0.37-0.67-2.04-1.28-2.53-0.24-0.2-0.88-0.52-1.6-0.85 0.19-0.29 0.39-0.59 0.6-0.87 0.19-0.15 0.77 0.15 1.25 0.47-0.13 0.28-0.23 0.55-0.22 0.68 0.02 0.36 0.19 0.25 0.37-0.22 0.05-0.11 0.11-0.17 0.16-0.25 0.1 0.08 0.2 0.17 0.25 0.22 0.02-0.09 0.12-0.26 0.22-0.43 0.17 0.04 0.35 0.18 0.62 0.4 1.04 0.86 5.21 0.28 5.88-0.81 0.58-0.94-0.83-2.22-3.88-3.47-0.95-0.39-1.54-0.56-1.81-0.56-0.8-0.73-2.62-2-4.28-3.66-1.46-1.47-3.51-4.26-4.53-6.22-1.4-2.68-2.28-3.67-3.63-3.93-1.76-0.36-7.025-5.41-6.839-6.57 0.052-0.33 1.711-0.51 3.687-0.43l3.592 0.12 2.16-3.62c2.14-3.61 2.94-4.24 3.72-2.97 1.09 1.78 2.13 0.31 3.15-4.44 0.6-2.8 1.1-5.83 1.1-6.72s0.76-3.13 1.68-4.97c1.38-2.73 2.42-3.73 5.82-5.69 4.41-2.54 6.01-4.37 7.75-8.84 1.58-4.07 1.37-8.42-0.57-12.31-3.81-7.67-8.34-10.94-19.25-13.75-5.76-1.49-7.62-1.71-12.371-1.38-7.013 0.49-14.165 2.48-19.656 5.47-5.636 3.07-8.146 5.58-10.656 10.69-1.853 3.77-2.1 4.86-2.094 9.81 0.009 6.67 1.844 11.18 5.531 13.63 1.59 1.05 2.901 2.9 4.407 6.15 1.18 2.56 2.156 5.05 2.156 5.53 0 1.22-2.46 2.64-5.313 3.07-2.068 0.3-2.77 0.01-5.187-2.07l-2.813-2.37-6.25 0.19c-5.82 0.17-6.516 0.04-10.375-1.82-2.278-1.09-4.24-2-4.343-2-0.104 0-0.578 0.91-1.032 2-0.762 1.85-0.671 2.16 1.032 3.94 1.012 1.06 1.716 2 1.562 2.13-0.153 0.13-1.774 1.08-3.594 2.09-2.942 1.63-3.521 2.33-5.343 6.47-1.127 2.56-2.975 7.19-4.094 10.25-1.12 3.06-2.339 6.29-2.719 7.19-0.946 2.24-3.812 10.6-3.812 11.12 0 0.24 3.727-1.47 8.25-3.78 4.522-2.31 8.342-4.03 8.531-3.84 0.278 0.28-6.337 31.27-11.375 53.31-1.069 4.67-1.897 5.63-3.375 3.84-0.552-0.66-0.569-1.8-0.031-4.31 0.398-1.86 0.58-3.73 0.406-4.19-0.174-0.45-1.655-1.55-3.313-2.43l-3-1.6-2.468 2.85c-1.655 1.92-2.853 2.78-3.719 2.62-1.152-0.21-1.446 0.56-2.75 7.63-0.798 4.32-1.6265 9.82-1.8751 12.25-0.4503 4.38-0.4631 4.4 1.7811 6.65 2.177 2.18 6.025 3.57 7.906 2.85 0.464-0.18 1.217-1.85 1.688-3.69s1.131-3.35 1.469-3.35 2.09 0.75 3.875 1.66c3.682 1.87 3.676 1.88 2.5 9.81-0.406 2.73-0.593 5.13-0.407 5.32 0.187 0.18 3.226 0.75 6.75 1.28 3.525 0.53 6.51 1.07 6.625 1.18 0.116 0.12-0.243 1.06-0.781 2.1-4.317 8.34-1.942 28.5 6.5 55.28 1.192 3.78 2.31 8.35 2.5 10.16 0.19 1.8 1.292 7.1 2.438 11.78 2.672 10.92 2.807 16.31 0.5 21.28-1.859 4-4.07 6.44-9.532 10.5-4.26 3.16-9.674 9.17-18.718 20.78l-6.282 8.03 2.032 7.03c3.725 12.9 4.4 14.82 12.25 34.66l5 12.59 4.593-0.37c7.204-0.57 7.532-0.67 7.532-2.85 0-4.41 7.806-30.55 14.875-49.78 9.065-24.66 12.653-34.31 15-40.28l2.593-6.53-2.406-32.09c-2.136-28.53-2.403-34.45-1.531-32.1 0.133 0.36 1.978 3.75 4.125 7.53s5.668 10.31 7.812 14.5c3.741 7.31 21.356 40.34 23.376 43.82 1.06 1.83 1.05 1.88-17.688 33.03-9.787 16.27-14.77 28.63-21.063 52.28-1.616 6.07-2.856 11.11-2.75 11.19 0.798 0.58 52.911 3.49 59.311 3.31s6.28-0.12 5-1.53c-1.06-1.18-0.93-1.25 3.5-1.69l4.6-0.47v-2.28c0-9.46 6.18-14.34 9.59-7.56 0.79 1.56 1.63 4.42 1.87 6.37l0.44 3.56h5.47c5.45 0 5.5 0 5.5-1.68 0-1.66-1.09-15.29-1.59-20.07l-0.25-2.4 7.78 0.37 7.78 0.41v-1.5c0-0.83-0.6-4.91-1.31-9.09-0.71-4.19-2.6-16.39-4.22-27.1l-2.97-19.47v-37.97l4.94-3.12c9.67-6.12 35.98-23.48 41.31-27.25 2.98-2.11 5.55-3.7 5.72-3.53 0.16 0.16-1.94 4.4-4.69 9.4-13.49 24.52-18.12 34.04-20.41 41.85-1.38 4.74-1.33 3.58-3.78 72.12l-0.37 11.22 4.9 0.47c2.71 0.25 6.26 0.35 7.91 0.22s3-0.08 3 0.12-2.17 1.03-4.84 1.82c-2.67 0.78-5.68 2.13-6.69 3-1.68 1.45-1.84 2.01-2.06 6.87-0.14 2.92-0.08 5.98 0.12 6.78l0.35 1.47 13.43-0.19 13.44-0.18v-3.41c0.04-8.32 6.04-13.47 9.25-7.94 0.65 1.11 1.36 3.45 1.56 5.22 0.76 6.6 0.34 6.19 6.19 6.19h5.19v-1.88c0-1.02-0.32-5.8-0.72-10.59-0.65-7.8-0.63-8.75 0.31-9.28 0.95-0.53 0.98-0.76 0.1-2.47-1.25-2.41-1.27-4.88-0.04-5.91 0.53-0.43 2.35-1.13 4.04-1.56s3.39-1.28 3.75-1.84c0.97-1.55-0.74-6.02-7.82-20.66-11.46-23.72-14.2-31.63-14.09-40.53 0.17-13.66 5.58-27.31 16.5-41.59 15.95-20.87 17.99-24.15 19.87-32.16 3.36-14.24-2.01-25.93-16.12-35.06-2.05-1.33-4.02-3.04-4.38-3.81-0.92-2.02 0.88-10.11 3.32-14.94 1.61-3.21 1.9-4.44 1.59-6.72-0.28-2.03-0.16-2.78 0.44-2.78 1.21 0 5.26 4.44 12.53 13.75 3.51 4.5 7.63 9.5 9.16 11.12 1.52 1.62 6.83 8.83 11.78 16.03 4.95 7.21 9.59 13.9 10.31 14.88 1.27 1.73 1.31 1.94 0.28 8.19-1.54 9.38-1.74 11.34-1.91 21.68-0.16 10.45-0.32 10.04 4.69 11.6l2.28 0.72 0.41 14.03c0.22 7.71 0.72 16.53 1.12 19.59 0.41 3.06 0.81 9.25 0.91 13.75l0.19 8.19-2.19-0.22c-2.08-0.2-2.18-0.14-1.84 1.63 0.19 1.01 0.87 12.7 1.5 25.93l-0.19 55.16 5.66 1.97c3.45 0 8.16-31.84 7.68-32.31 0.14 0.07 0.94 0.62 1.07 0.5 0.14-0.16 0.88-5.59 1.65-12.07s1.54-12.8 1.69-14.06c1.35-11.22 1.84-21.26 2.91-59.16 0.3-10.73 0.7-19.67 0.9-19.87s5.01 0.15 10.69 0.78c7.42 0.83 12.56 1.02 18.28 0.72l7.94-0.41 4.94 7.03c2.71 3.88 7.24 10.1 10.09 13.82 5.47 7.14 8.55 12.97 10.22 19.4 1.39 5.37 1.31 6.25-0.5 6.25-1.47 0-1.48 0.09-1 4.41 0.27 2.43 0.51 8.42 0.53 13.28 0.04 7.94-0.28 10.39-3 24.41-2.96 15.22-3.1 15.68-5.56 18.81-1.39 1.76-2.53 3.5-2.53 3.84 0 0.35 0.72 1.19 1.59 1.88 1.36 1.07 1.67 2.04 2.12 6.75 0.52 5.31 0.58 5.52 2.25 5.72 1.7 0.19 1.75 0.28 1.41 4.03-0.31 3.41-0.21 3.9 1.03 4.56 0.76 0.41 2.91 0.8 4.78 0.88 3.38 0.14 3.42 0.13 4.97-2.66l1.56-2.81 1.72 1.72c2.75 2.74 11.64 6.7 17.44 7.75 6.55 1.18 10.24 1.25 12.38 0.28 2.86-1.31 2.14-3.55-2.22-6.75-2.39-1.76-3.13-2.68-3.13-4.03 0-1.05-0.62-2.26-1.5-2.97-1.92-1.56-1.42-2 1.38-1.19 4.06 1.17 3.87 1.71 3.87-11.47v-12.12l3.28-12.6c1.8-6.93 4.27-16.41 5.53-21.09 1.27-4.68 2.28-9.85 2.29-11.47 0-1.62 0.33-3.99 0.71-5.25s0.95-3.9 1.25-5.88c0.41-2.6 1.59-5.31 4.32-9.81 2.07-3.42 5.01-8.88 6.53-12.12 2.53-5.4 3.51-8.2 5.47-15.78 0.38-1.48 2.23-5.28 4.15-8.47 2.69-4.47 4.33-6.39 7.1-8.35l3.59-2.53 6.53 6.75c23.21 23.97 28.46 29.21 32.35 32.35l4.31 3.5-1.19 4.59c-1.79 6.83-2.8 19.79-2.41 30.72 0.4 10.83-0.4 17.12-4.46 34.69-1.28 5.52-2.17 10.2-1.97 10.4s2.72 0.12 5.62-0.22c2.91-0.34 5.42-0.48 5.53-0.28 0.12 0.2 0.4 3.24 0.66 6.75 0.43 5.79 0.61 6.43 1.87 6.72 4.21 0.95 7.26 1.55 7.35 1.44 0.05-0.07 0.89-1.67 1.84-3.56 2.58-5.15 4.28-4.73 7.56 1.96 2.12 4.31 3.77 5.4 10.13 6.69 15.66 3.19 22.22-5.07 8.12-10.22-3.82-1.4-6.28-3.62-8.34-7.56-1.05-2-1.12-1.97 2.38-2.44 1.73-0.23 3.65-0.77 4.25-1.22 0.98-0.73 0.98-1.09 0.12-3.56-0.52-1.5-1.26-4.73-1.66-7.19-0.39-2.45-2.42-12.56-4.53-22.46-5.02-23.64-5.62-26.82-7.22-37.66-1.75-11.91-2.74-15.33-6.21-21.06-1.58-2.61-4.23-7.74-5.88-11.41-1.64-3.67-4.38-9.37-6.06-12.66-1.68-3.28-3.14-6.14-3.25-6.37s0.62-0.72 1.62-1.09c1.01-0.38 4.19-1.61 7.07-2.72l5.21-2.03 2.47 2.81c1.36 1.54 3.7 5.31 5.22 8.37s2.87 5.68 2.97 5.85c0.1 0.16 1.17-0.73 2.41-1.97 1.41-1.42 3.49-4.99 5.53-9.66 3.09-7.07 4.26-9.03 8.19-13.53l1.71-1.97-0.31 2.28c-0.85 5.96-1.82 19-1.62 21.91 0.19 2.85 0.49 3.4 2.31 4.47 1.14 0.66 4.06 1.55 6.47 2l4.34 0.81 6.78 17.31c3.73 9.53 6.78 17.93 6.78 18.66 0 3.42-4.51 19.14-11.68 40.62-4.33 12.95-8.2 25.05-8.6 26.91-0.69 3.24-0.62 3.55 1.66 8.09 2.96 5.9 7.52 10.85 11.78 12.85 4.73 2.22 10.93 2.15 15.69-0.19 4.61-2.26 13.37-9.31 15.97-12.84 3.06-4.17 3.17-5.43 0.72-7.97-2.55-2.63-4.62-8.8-7.29-21.78-3.1-15.1-2.51-24.15 2.32-37 2.69-7.17 2.67-9.35 0.12-21.78-2.74-13.37-4.81-27.6-4.12-28.29 0.56-0.56 12.95-2.15 13.65-1.75 0.26 0.15 2.1 3.16 4.13 6.66 2.02 3.5 6.12 10.49 9.09 15.53 9.28 15.73 9.08 15.14 8.66 23.53-0.28 5.57-1.06 9.93-3.38 19.03-5.79 22.71-7.64 35.98-8.53 60.72l-0.31 9h1.69c1.51 0 1.66-0.2 1.28-1.72-0.24-0.94-0.55-2.65-0.72-3.78-0.25-1.67 0-1.39 1.34 1.44 1.54 3.25 1.77 3.47 3.75 3.28 2.07-0.2 2.12-0.3 2.32-3.69 0.17-3.03 0.43-3.53 1.9-4.09 0.93-0.35 2.63-0.47 3.81-0.25 1.74 0.33 2.19 0.2 2.44-0.78 0.22-0.84 0.36-0.69 0.41 0.53 0.04 1.05 0.7 2.22 1.69 2.94 0.9 0.66 2.65 3.13 3.84 5.47 2.03 4 2.3 4.27 4.62 4.47 1.86 0.15 2.87-0.19 4.04-1.29 1.55-1.46 2.27-0.9 0.78 0.6-0.61 0.61 0.63 0.81 5.56 0.81 5.47 0 6.5-0.18 7.62-1.31 2.53-2.53 0.73-8.16-2.78-8.66-0.93-0.13-1.52-0.71-1.65-1.65-0.2-1.38 0.03-1.47 3.37-1.47 5.57 0 5.7-0.17 4.19-4.16-1.8-4.74-5.52-18.54-7-25.97-1.55-7.76-2.35-15.32-3.63-34.06-1.19-17.48-2.68-31.91-3.65-35.63-1.41-5.37-12.69-29.12-21.16-44.56-1.18-2.16-2.37-5.42-2.62-7.22-0.81-5.83-5.37-22.7-8.72-32.18-5.36-15.17-8.68-30.36-9.66-44.35l-0.37-5.31 3.87 5.91c6.79 10.35 13.91 18.46 24.06 27.43 10.53 9.3 16.23 16.4 24.16 30 2.47 4.23 4.82 7.69 5.22 7.69 0.39 0 1.17-0.94 1.72-2.09 0.92-1.96 1.02-0.76 1.37 16.87l0.41 18.94 2.91 11.81c4.17 16.9 4.64 21.36 4 37.16-0.3 7.28-0.47 26.05-0.38 41.72l0.16 28.5 5.62 2.43c3.11 1.35 6.03 2.47 6.5 2.47 1.22 0 1.07 0.93-0.72 4.47-2.32 4.6-3.83 10.4-3.4 13.03 0.76 4.69 5.19 7.38 12.18 7.38 5.32 0 8.56-1.13 10.13-3.53 0.95-1.46 1.04-2.57 0.53-8.41-0.32-3.7-0.47-9.17-0.34-12.16 0.22-5.13 0.32-5.49 1.9-6.09l1.69-0.62-0.44-6.69c-0.91-14.12-3.67-41.63-4.62-46.16-0.55-2.61-1.43-8.08-1.97-12.19-0.89-6.77-0.9-7.74 0.06-10.56 0.82-2.4 1-4.6 0.72-9.65-0.26-4.76-0.11-7.26 0.56-9.16 1.26-3.56 1.17-5.65-0.37-8.69-1.43-2.81-1.75-10.13-0.69-16.34 0.31-1.8 0.94-8.4 1.41-14.66l0.87-11.37 1.85 2.18c2.9 3.44 7.38 13.28 9.65 21.19 2.37 8.25 3.85 12.49 6.06 16.72v-229.56c-0.55-0.21-1.09-0.01-1.87 0.4-0.93 0.5-4.08 3.28-7.03 6.19-7.46 7.36-10.36 13.52-8.25 17.47 0.66 1.24 7.9 5.16 9.53 5.16 0.82 0 0.74 6.14-0.13 10.97l-0.46 2.78h2.06c1.22 0 1.92 0.27 1.69 0.65-0.23 0.36-1.36 0.66-2.5 0.66-5.78 0.01-8.48 4.62-11.91 20.28-2.35 10.74-5.29 18.56-10.13 26.84-0.94 1.62-4.03 7.09-6.84 12.13s-7.16 12.53-9.66 16.66c-6.66 11.01-6.93 13.01-1.59 12.28l2.94-0.44-0.31 3.09c-0.17 1.7-0.38 3.44-0.5 3.85-0.34 1.1-9.28 1.7-13.41 0.9-1.98-0.38-5.19-1.51-7.16-2.5-3.92-1.97-11.38-8.91-15.56-14.53-3.82-5.13-10.44-16.2-14.5-24.22-4.65-9.2-8.88-15.55-11.19-16.75-1.21-0.63-4.81-1.14-10.06-1.4-4.5-0.23-8.19-0.66-8.19-0.97s1.51-2.5 3.35-4.85c1.84-2.34 3.2-4.41 3.03-4.59-0.18-0.17-4.53 1.58-9.69 3.91-5.16 2.32-9.57 4.11-9.81 3.97-0.24-0.15-0.37-1.89-0.31-3.85 0.08-3.06 0.34-3.77 1.9-5 1.79-1.41 1.87-1.39 4.03-0.22 1.8 0.97 2.5 1.02 3.85 0.41 3.92-1.79 5.19-9.64 2.47-15.28l-1.41-2.91 1.91-4.56c1.04-2.51 2.52-7.34 3.31-10.72 1.41-6.04 1.43-6.23 0.31-11.12-1.44-6.29-3.5-10.17-8.09-15.25-4.63-5.13-9.52-8.28-13.6-8.79-1.71-0.21-5.04-0.94-7.37-1.59-2.34-0.65-6.69-1.38-9.66-1.59-4.74-0.35-6-0.17-10.44 1.34-3.68 1.25-5.82 2.46-7.87 4.44-2.94 2.83-7.81 9.97-10.97 16.12-1.4 2.73-1.92 3.29-2.12 2.32-0.59-2.77 0.46-12.03 1.81-16.07 1.32-3.95 1.4-5.92 0.37-8.59-0.28-0.72 0.03-1.17 0.94-1.41 0.74-0.19 1.54-0.87 1.78-1.5 0.7-1.83-0.98-7.02-2.78-8.62-1.79-1.6-4.76-1.96-6-0.72-1.59 1.59-1.52-0.17 0.19-5.31 1.67-5.04 1.77-7.22 0.37-7.22zm-418.06 102.87c-0.01 0.07-0.02 0.13 0.03 0.13 0.06 0 0.04-0.06-0.03-0.13zm394-51.59c0.02-0.02 0.08-0.01 0.16 0 1.2 0.14 8.98 3.09 9.68 3.72 0.31 0.27 0.11 1.18-0.43 2.03-1.27 1.97-2.62 5.55-4.32 11.44-0.74 2.59-2.51 6.39-3.96 8.53-1.44 2.12-3.23 5.69-3.97 7.94-0.75 2.24-1.62 4.23-1.94 4.43s-0.9 1.55-1.28 2.97c-0.38 1.43-0.96 2.6-1.28 2.6-0.33 0-1.56 1.01-2.75 2.25-1.38 1.43-3.07 2.4-4.63 2.68-2.8 0.5-3.25-0.09-0.78-1.03 1.83-0.69 3.79-4.54 3.16-6.19-0.26-0.65 0.98-2.54 3.5-5.4 2.14-2.43 4.65-5.66 5.59-7.16 4.14-6.63 5.77-16.82 3.94-24.72-0.49-2.12-0.81-3.97-0.69-4.09zm26.16 14.19c0.23 0 0.6 1.48 0.84 3.31 0.24 1.82 0.82 3.69 1.28 4.16 0.46 0.46 1.3 1.91 1.85 3.21 1.36 3.27 6.28 8.39 10.93 11.38 3.16 2.02 3.8 2.75 3.47 3.81-0.72 2.33-1.1 8.71-0.65 11.06 0.55 2.94 3.31 6.29 5.21 6.29 3.23 0 5.63-4.51 5.63-10.6v-3.9l2.72 2.31c1.5 1.29 4.33 2.86 6.25 3.47l3.5 1.09-0.22 4.31-0.16 4.28-13.09 0.72c-7.19 0.41-13.2 0.77-13.38 0.82-0.17 0.04 2.14 1.62 5.13 3.5l5.44 3.43-2.25 0.78c-6.45 2.24-11.63 6.28-13.97 10.91-1.3 2.58-1.81 4.89-2.25 10.25-0.59 7.12-3.15 36.96-4.88 56.69-1.33 15.24-1.29 15.08-4.37 18.44-3.59 3.89-7.07 5.85-13.25 7.43-2.82 0.72-5.25 1.44-5.41 1.6-0.16 0.15 0.84 0.74 2.19 1.31s2.31 1.12 2.16 1.28c-0.16 0.16-2.79 0.84-5.85 1.5l-5.56 1.22-5.91-6.25c-8.38-8.86-8.11-8.18-5.06-13.19 14.94-24.53 22.76-48.71 21.59-66.72-0.22-3.42-1.24-11.35-2.28-17.65-1.8-10.99-1.84-11.53-0.75-13.1 0.63-0.9 1.74-2.84 2.47-4.28 0.74-1.44 2.35-3.74 3.6-5.09 1.68-1.83 2.57-3.65 3.4-7.06 0.62-2.54 2.08-6.59 3.25-9 1.18-2.41 2.37-5.7 2.63-7.32s0.88-3.74 1.37-4.72c0.5-0.97 0.91-2.91 0.91-4.31 0-1.8 0.42-2.95 1.5-3.97 0.83-0.78 1.73-1.4 1.97-1.4zm-171.13 10.09c0.93-0.19 2.16 5.64 1.44 8.5-0.43 1.73-2.54 2.35-3.38 1-0.36-0.59 0.31-4.52 1.47-8.72 0.14-0.5 0.3-0.74 0.47-0.78zm-96.03 3.28c0.53-0.07 2 1.03 4.09 3.06 5.41 5.26 9.2 8.06 21.1 15.63l10.53 6.69-1.13 1.75c-6.91 10.73-18.58 21-30.96 27.28l-3.6 1.81 2.28 0.97c1.25 0.52 5.39 1.47 9.22 2.12 3.83 0.66 9.95 2.23 13.6 3.5 13.07 4.56 35.69 13.12 36.06 13.66 0.63 0.92-0.58 7.97-2.03 11.88-0.76 2.01-2.53 5.4-3.94 7.53-1.42 2.12-2.96 4.14-3.41 4.5-1.67 1.32-12.22-1.59-21.78-6.03-8.19-3.82-13.12-7.33-18.15-12.94-8.88-9.9-12.49-15.88-15.1-24.88-0.82-2.82-2.21-6.19-3.06-7.47-2.44-3.68-7.86-7.16-14.66-9.43-3.74-1.25-6.15-2.4-6.15-2.94 0-0.49 1.24-1.87 2.75-3.06 1.5-1.19 4.05-3.4 5.65-4.94 1.91-1.83 3.3-2.67 4.03-2.44 0.62 0.2 1.62 0.14 2.22-0.09 2.76-1.06 4.02-8.32 1.97-11.25-0.92-1.33-0.9-1.78 0-4.91 1.12-3.86 2.59-5.52 6.91-7.69 1.62-0.81 3.15-1.81 3.4-2.21 0.04-0.06 0.09-0.09 0.16-0.1zm331.91 1.38c0.49-0.03 0.93 0.67 1.78 2.59 1.62 3.66 1.47 8.99-0.31 11.72-1.27 1.94-4.33 2.33-5.66 0.72-0.66-0.8-0.54-1.58 0.53-4.1 0.73-1.71 1.5-4.62 1.75-6.5 0.25-1.87 0.87-3.76 1.38-4.18 0.18-0.16 0.36-0.24 0.53-0.25zm-44.53 10.78c0.13 0 1.45 0.59 2.93 1.31 1.49 0.72 3.01 1.31 3.35 1.31 0.87 0 1.4 1.68 1.4 4.47 0 3.4-1.04 6.62-2.72 8.41-1.73 1.85-1.9 1.85-3.93 0.25-2.92-2.3-4.05-9.09-2.22-13.47 0.52-1.25 1.06-2.28 1.19-2.28zm-298.72 2.5c0.57 0.03 1.24 2.38 1.25 4.78 0 2.08-0.42 3.53-1.35 4.72-1.33 1.7-2.84 2.24-3.47 1.22-0.27-0.45 2.63-9.72 3.32-10.57 0.07-0.09 0.16-0.16 0.25-0.15zm-140.53 5.19h0.06c0.06 0.15 0.08 0.31 0.06 0.5-0.32-0.25-0.31-0.5-0.12-0.5zm-11.97 25.18c-0.08 0.32-0.12 0.59-0.16 0.82-0.02-0.36 0.01-0.65 0.16-0.82zm454.9 25.5c0.05-0.01 0.08-0.01 0.13 0 0.17 0.04 0.36 0.23 0.56 0.57 0.32 0.54 2.41 3.33 4.66 6.18 8.55 10.87 14.18 20.41 14.81 25.19 0.75 5.71-10.25 27.51-18.47 36.63-2.23 2.47-4.36 3.41-5.09 2.21-2.85-4.67-2.37-27.93 1.28-59.9 0.86-7.59 1.44-10.64 2.12-10.88zm-46.06 84.38c1.15-0.05 2.36 0.1 2.63 0.53 0.19 0.31-0.33 1.19-1.16 1.97-1.46 1.37-1.54 1.39-2.59 0.22-0.6-0.67-1.1-1.55-1.1-1.97 0-0.44 1.08-0.7 2.22-0.75zm-346.94 117.75c0.02-0.01 0.02-0.01 0.03 0 0.04 0.02 0.09 0.09 0.13 0.25 0.16 0.63 0.16 1.68 0 2.31s-0.31 0.1-0.31-1.16c0-0.82 0.07-1.33 0.15-1.4zm-34.28 4.03h2.78c4.9 0.02 5.14 1.13 0.91 4.41-2.93 2.26-3.69 1.89-3.69-1.91v-2.5zm169.35 32.09l1.37 3.44c0.77 1.89 1.72 3.64 2.09 3.91 0.38 0.26 2.07 0.46 3.75 0.47l3.07 0.03 1.9-3.94 1.88-3.91-5.72 1.97-8.34-1.97z" fill="#000080"/>
  </g>
  <metadata>
    <rdf:RDF>
      <cc:Work>
        <dc:format>image/svg+xml</dc:format>
        <dc:type rdf:resource="http://purl.org/dc/dcmitype/StillImage"/>
        <cc:license rdf:resource="http://creativecommons.org/licenses/publicdomain/"/>
        <dc:publisher>
          <cc:Agent rdf:about="http://openclipart.org/">
            <dc:title>Openclipart</dc:title>
          </cc:Agent>
        </dc:publisher>
        <dc:title>Disco Dancers</dc:title>
        <dc:date>2008-10-06T09:06:18</dc:date>
        <dc:description>Silhouette of dancers with starlit backdrop</dc:description>
        <dc:source>http://openclipart.org/detail/19523/disco-dancers-by-eeyrsja</dc:source>
        <dc:creator>
          <cc:Agent>
            <dc:title>eeyrsja</dc:title>
          </cc:Agent>
        </dc:creator>
        <dc:subject>
          <rdf:Bag>
            <rdf:li>blue</rdf:li>
            <rdf:li>clip art</rdf:li>
            <rdf:li>clipart</rdf:li>
            <rdf:li>dancer</rdf:li>
            <rdf:li>dancing</rdf:li>
            <rdf:li>disco</rdf:li>
            <rdf:li>music</rdf:li>
            <rdf:li>night</rdf:li>
            <rdf:li>party</rdf:li>
            <rdf:li>seventies</rdf:li>
            <rdf:li>silhouette</rdf:li>
            <rdf:li>stars</rdf:li>
          </rdf:Bag>
        </dc:subject>
      </cc:Work>
      <cc:License rdf:about="http://creativecommons.org/licenses/publicdomain/">
        <cc:permits rdf:resource="http://creativecommons.org/ns#Reproduction"/>
        <cc:permits rdf:resource="http://creativecommons.org/ns#Distribution"/>
        <cc:permits rdf:resource="http://creativecommons.org/ns#DerivativeWorks"/>
      </cc:License>
    </rdf:RDF>
  </metadata>
</svg>
